<svg width="39" height="38" viewBox="0 0 39 38" fill="none" xmlns="http://www.w3.org/2000/svg">
<path d="M19.434 37.7545C29.7076 37.7545 38.036 29.3028 38.036 18.8772C38.036 8.45163 29.7076 0 19.434 0C9.16043 0 0.832031 8.45163 0.832031 18.8772C0.832031 29.3028 9.16043 37.7545 19.434 37.7545Z" fill="#2E688E"/>
<path d="M29.5335 12.5382C29.5335 16.7613 29.5335 20.9845 29.5335 25.2076C29.054 26.3937 28.6404 26.6735 27.3667 26.6735C22.0912 26.6735 16.8158 26.6611 11.5415 26.6846C10.5045 26.6896 9.76149 26.4618 9.33203 25.2076C9.33203 20.9845 9.33203 16.7613 9.33203 12.5382C9.81639 11.3471 10.2227 11.0723 11.5 11.0723C16.7743 11.0723 22.0485 11.0723 27.3228 11.0723C28.6417 11.0723 29.0406 11.3372 29.5335 12.5382ZM11.6635 12.2806C14.2159 14.9413 16.8402 17.675 19.3766 20.3196C22.0522 17.6032 24.696 14.919 27.296 12.2806C22.0876 12.2806 16.7841 12.2806 11.6635 12.2806ZM11.5074 25.4565C16.7767 25.4565 22.09 25.4565 27.3484 25.4565C25.5037 23.5807 23.6444 21.6902 21.7496 19.7625C21.2043 20.3283 20.6333 20.9287 20.0538 21.5206C19.5963 21.9886 19.34 21.991 18.8874 21.5255C18.292 20.9126 17.7088 20.2862 17.1586 19.7067C15.2212 21.6766 13.3594 23.5721 11.5074 25.4565ZM10.5326 13.1609C10.5326 16.9966 10.5326 20.7628 10.5326 24.4474C12.3773 22.5754 14.2476 20.6762 16.0362 18.8599C14.2439 17.004 12.4078 15.1035 10.5326 13.1609ZM22.844 18.8227C24.6741 20.6799 26.5334 22.5667 28.3318 24.3929C28.3318 20.7467 28.3318 16.9817 28.3318 13.2488C26.481 15.1295 24.6265 17.0126 22.844 18.8227Z" fill="white"/>
</svg>
