<svg width="38" height="38" viewBox="0 0 38 38" fill="none" xmlns="http://www.w3.org/2000/svg">
<path d="M18.9342 37.7545C29.3912 37.7545 37.8684 29.3028 37.8684 18.8772C37.8684 8.45163 29.3912 0 18.9342 0C8.47712 0 0 8.45163 0 18.8772C0 29.3028 8.47712 37.7545 18.9342 37.7545Z" fill="#2E688E"/>
<path d="M23.9127 8.43002C23.9127 9.58392 23.9127 10.6747 23.9127 11.8298C23.6557 11.8422 23.4023 11.8571 23.1502 11.867C22.507 11.893 21.8587 11.8769 21.2204 11.9512C20.52 12.0329 20.1462 12.4006 20.0394 13.084C19.883 14.0819 20.0022 15.086 19.9736 16.1434C21.2726 16.1434 22.502 16.1434 23.8109 16.1434C23.6408 17.4533 23.4793 18.6975 23.3117 19.9963C22.1853 19.9963 21.1124 19.9963 19.9786 19.9963C19.9786 23.2822 19.9786 26.5074 19.9786 29.7711C18.6349 29.7711 17.3534 29.7711 16.011 29.7711C15.9998 29.5532 15.9811 29.3353 15.9799 29.1174C15.9762 26.3341 15.9762 23.5521 15.9749 20.7689C15.9749 20.5312 15.9749 20.2922 15.9749 20C14.8287 20 13.7558 20 12.6406 20C12.6406 18.7037 12.6406 17.4632 12.6406 16.1669C13.7434 16.1669 14.8176 16.1669 15.9439 16.1669C15.9551 15.9279 15.9687 15.7422 15.97 15.5577C15.9725 14.7406 15.9513 13.9222 15.9774 13.1051C15.9911 12.6556 16.037 12.1988 16.1451 11.7642C16.6344 9.79564 18.1556 8.50554 20.1996 8.3384C20.8926 8.28145 21.5942 8.30621 22.2909 8.32107C22.81 8.33221 23.3291 8.38916 23.9127 8.43002Z" fill="white"/>
</svg>
