<svg width="39" height="38" viewBox="0 0 39 38" fill="none" xmlns="http://www.w3.org/2000/svg">
<path d="M19.7467 37.7545C30.2037 37.7545 38.6809 29.3028 38.6809 18.8772C38.6809 8.45163 30.2037 0 19.7467 0C9.28962 0 0.8125 8.45163 0.8125 18.8772C0.8125 29.3028 9.28962 37.7545 19.7467 37.7545Z" fill="#2E688E"/>
<path d="M29.3401 18.851C29.3103 20.2142 29.2941 21.5773 29.2482 22.9392C29.2072 24.1451 28.924 25.2854 28.1901 26.2734C27.2687 27.514 25.9933 28.1442 24.4845 28.3051C23.6786 28.3918 22.8639 28.4265 22.053 28.4252C19.8897 28.4228 17.7252 28.4104 15.562 28.3571C14.2953 28.3262 13.1106 27.9783 12.1084 27.1549C10.9846 26.2301 10.4208 25.0068 10.2755 23.5917C10.191 22.7721 10.16 21.9438 10.1575 21.1192C10.1513 19.1952 10.1687 17.2712 10.1923 15.3472C10.2035 14.4496 10.2916 13.5582 10.617 12.7076C11.2404 11.0808 12.4127 10.068 14.0854 9.6099C14.992 9.36228 15.9246 9.34247 16.8522 9.33628C18.9224 9.3239 20.9925 9.32885 23.0626 9.3499C24.0076 9.3598 24.9514 9.42542 25.8542 9.75723C27.5096 10.3664 28.5515 11.5302 29.0209 13.2165C29.2705 14.1116 29.2854 15.0328 29.2991 15.9514C29.314 16.9171 29.3028 17.8829 29.3028 18.8498C29.314 18.8498 29.3276 18.851 29.3401 18.851ZM27.6127 18.8882C27.6003 18.8882 27.5866 18.8882 27.5742 18.8882C27.5742 18.0475 27.5941 17.2056 27.568 16.3649C27.5444 15.58 27.5208 14.7901 27.4078 14.015C27.2476 12.9218 26.6739 12.07 25.6605 11.5649C25.0135 11.2417 24.3094 11.129 23.5929 11.1179C21.7885 11.0919 19.9841 11.0671 18.181 11.0709C17.2136 11.0721 16.2437 11.0956 15.2788 11.1736C14.1736 11.2615 13.2211 11.6961 12.5865 12.6544C12.1146 13.3675 11.9631 14.1822 11.952 15.0154C11.9234 17.1722 11.906 19.3302 11.911 21.4882C11.9122 22.21 11.9544 22.938 12.0513 23.6536C12.2003 24.7543 12.7368 25.6346 13.7464 26.1707C14.3934 26.5136 15.1025 26.6411 15.8277 26.6486C17.9599 26.6721 20.0909 26.6931 22.2231 26.6931C22.9322 26.6931 23.6463 26.6609 24.3504 26.5817C25.4047 26.4641 26.2963 26.0196 26.8961 25.1059C27.3519 24.4113 27.5009 23.6264 27.5245 22.8142C27.5618 21.5043 27.5841 20.1956 27.6127 18.8882Z" fill="white"/>
<path d="M24.6623 18.8796C24.6611 21.5947 22.4457 23.801 19.7248 23.7948C16.999 23.7874 14.8022 21.5873 14.8047 18.8635C14.8072 16.1409 17.0189 13.9619 19.777 13.9644C22.4631 13.9668 24.6636 16.1818 24.6623 18.8796ZM22.9176 18.8821C22.9176 17.1227 21.4907 15.6952 19.7323 15.6965C17.9776 15.6977 16.5395 17.1339 16.542 18.8845C16.5445 20.6253 17.9776 22.0541 19.7223 22.0541C21.4919 22.0541 22.9176 20.6402 22.9176 18.8821Z" fill="white"/>
<path d="M24.8469 14.9141C24.1974 14.9117 23.7044 14.4226 23.7031 13.7788C23.7019 13.1338 24.221 12.6125 24.858 12.6187C25.5013 12.6249 26.0129 13.1474 26.0055 13.7899C25.998 14.4238 25.4914 14.9166 24.8469 14.9141Z" fill="white"/>
</svg>
