<svg width="39" height="38" viewBox="0 0 39 38" fill="none" xmlns="http://www.w3.org/2000/svg">
<path d="M19.8914 37.9C30.3572 37.9 38.8414 29.4158 38.8414 18.95C38.8414 8.48419 30.3572 0 19.8914 0C9.4256 0 0.941406 8.48419 0.941406 18.95C0.941406 29.4158 9.4256 37.9 19.8914 37.9Z" fill="#2E688E"/>
<path d="M20.4813 16.012C20.4813 15.8305 20.4925 15.7174 20.48 15.6081C20.2128 13.3784 21.7254 11.35 23.9402 10.9809C25.2576 10.7621 26.4371 11.089 27.45 11.954C27.6998 12.1678 27.9136 12.2337 28.2144 12.1156C28.8209 11.8782 29.4336 11.6557 30.0426 11.4271C30.1297 11.3947 30.2154 11.3575 30.3732 11.2928C30.0725 12.2163 29.497 12.8452 28.8172 13.4007C28.8383 13.4355 28.8582 13.4691 28.8793 13.5039C29.5281 13.3311 30.1769 13.1571 30.8716 12.9719C30.587 13.5225 30.1458 13.9004 29.7493 14.3118C29.5753 14.492 29.379 14.6548 29.1739 14.7977C28.9564 14.9481 28.8893 15.1308 28.893 15.393C28.9278 17.7744 28.2579 19.9569 26.979 21.9529C25.1781 24.7667 22.624 26.5117 19.349 27.1394C16.2866 27.726 13.3833 27.2313 10.68 25.6504C10.6539 25.6355 10.6365 25.6032 10.5508 25.5038C12.7656 25.6504 14.7566 25.1868 16.6011 23.816C15.6788 23.6755 14.8909 23.458 14.2123 22.9348C13.5448 22.419 13.0663 21.7839 12.7631 20.9574C13.3137 20.8654 13.8406 21.0444 14.3987 20.8095C12.466 20.106 11.3723 18.8271 11.2505 16.7764C11.8359 16.9354 12.3741 17.0821 12.9122 17.2288C11.2679 15.6391 10.8242 13.8631 11.8185 11.7017C12.2461 12.1231 12.6152 12.522 13.0204 12.8787C13.4342 13.2429 13.8692 13.5896 14.3241 13.8991C14.7803 14.2086 15.2612 14.4858 15.7534 14.7331C16.2307 14.9742 16.7253 15.1892 17.2299 15.3607C17.7507 15.5385 18.2889 15.6789 18.8295 15.7858C19.3664 15.8939 19.9133 15.9374 20.4813 16.012Z" fill="white"/>
</svg>
