<svg width="39" height="39" viewBox="0 0 39 39" fill="none" xmlns="http://www.w3.org/2000/svg">
<path d="M19.5 36.5625C14.9747 36.5625 10.6348 34.7648 7.43499 31.565C4.23515 28.3652 2.4375 24.0252 2.4375 19.5C2.4375 14.9747 4.23515 10.6348 7.43499 7.43499C10.6348 4.23515 14.9747 2.4375 19.5 2.4375C24.0252 2.4375 28.3652 4.23515 31.565 7.43499C34.7648 10.6348 36.5625 14.9747 36.5625 19.5C36.5625 24.0252 34.7648 28.3652 31.565 31.565C28.3652 34.7648 24.0252 36.5625 19.5 36.5625ZM19.5 39C24.6717 39 29.6316 36.9455 33.2886 33.2886C36.9455 29.6316 39 24.6717 39 19.5C39 14.3283 36.9455 9.36837 33.2886 5.71142C29.6316 2.05446 24.6717 0 19.5 0C14.3283 0 9.36837 2.05446 5.71142 5.71142C2.05446 9.36837 0 14.3283 0 19.5C0 24.6717 2.05446 29.6316 5.71142 33.2886C9.36837 36.9455 14.3283 39 19.5 39Z" fill="black"/>
<path d="M26.7391 12.1143C26.7217 12.1311 26.7054 12.149 26.6903 12.1679L18.2249 22.9538L13.1232 17.8497C12.7767 17.5268 12.3183 17.351 11.8447 17.3593C11.3711 17.3677 10.9192 17.5596 10.5843 17.8945C10.2493 18.2294 10.0575 18.6813 10.0491 19.1549C10.0408 19.6285 10.2166 20.0869 10.5395 20.4335L16.9891 26.8855C17.1628 27.0589 17.3697 27.1956 17.5975 27.2873C17.8252 27.3791 18.069 27.424 18.3145 27.4195C18.5599 27.4149 18.802 27.361 19.0261 27.2609C19.2503 27.1607 19.452 27.0165 19.6192 26.8368L29.3497 14.6736C29.681 14.3259 29.8621 13.8617 29.854 13.3814C29.8458 12.9012 29.6489 12.4434 29.3059 12.1072C28.9629 11.7709 28.5014 11.5832 28.0211 11.5845C27.5407 11.5858 27.0802 11.7761 26.7391 12.1143Z" fill="black"/>
<path d="M26.7391 12.1143C26.7217 12.1311 26.7054 12.149 26.6903 12.1679L18.2249 22.9538L13.1232 17.8497C12.7767 17.5268 12.3183 17.351 11.8447 17.3593C11.3711 17.3677 10.9192 17.5596 10.5843 17.8945C10.2493 18.2294 10.0575 18.6813 10.0491 19.1549C10.0408 19.6285 10.2166 20.0869 10.5395 20.4335L16.9891 26.8855C17.1628 27.0589 17.3697 27.1956 17.5975 27.2873C17.8252 27.3791 18.069 27.424 18.3145 27.4195C18.5599 27.4149 18.802 27.361 19.0261 27.2609C19.2503 27.1607 19.452 27.0165 19.6192 26.8368L29.3497 14.6736C29.681 14.3259 29.8621 13.8617 29.854 13.3814C29.8458 12.9012 29.6489 12.4434 29.3059 12.1072C28.9629 11.7709 28.5014 11.5832 28.0211 11.5845C27.5407 11.5858 27.0802 11.7761 26.7391 12.1143Z" stroke="black"/>
</svg>
