<svg width="33" height="30" viewBox="0 0 33 30" fill="none" xmlns="http://www.w3.org/2000/svg">
<path d="M0.00390625 4.375C0.00390625 3.24783 0.438503 2.16683 1.21209 1.3698C1.98568 0.572767 3.03489 0.125 4.12891 0.125H28.8789C29.9729 0.125 31.0221 0.572767 31.7957 1.3698C32.5693 2.16683 33.0039 3.24783 33.0039 4.375V25.625C33.0039 26.7522 32.5693 27.8332 31.7957 28.6302C31.0221 29.4272 29.9729 29.875 28.8789 29.875H4.12891C3.03489 29.875 1.98568 29.4272 1.21209 28.6302C0.438503 27.8332 0.00390625 26.7522 0.00390625 25.625V4.375ZM2.06641 23.5V25.625C2.06641 26.1886 2.2837 26.7291 2.6705 27.1276C3.05729 27.5261 3.5819 27.75 4.12891 27.75H28.8789C29.4259 27.75 29.9505 27.5261 30.3373 27.1276C30.7241 26.7291 30.9414 26.1886 30.9414 25.625V18.1875L23.1513 14.0501C22.9579 13.9503 22.7389 13.9157 22.5254 13.9511C22.3118 13.9866 22.1145 14.0904 21.9613 14.2477L14.3094 22.1315L8.82316 18.366C8.62507 18.2301 8.38748 18.169 8.15065 18.193C7.91383 18.217 7.69236 18.3247 7.52378 18.4977L2.06641 23.5ZM12.3789 9.6875C12.3789 8.84212 12.053 8.03137 11.4728 7.4336C10.8926 6.83582 10.1057 6.5 9.28516 6.5C8.46464 6.5 7.67773 6.83582 7.09754 7.4336C6.51735 8.03137 6.19141 8.84212 6.19141 9.6875C6.19141 10.5329 6.51735 11.3436 7.09754 11.9414C7.67773 12.5392 8.46464 12.875 9.28516 12.875C10.1057 12.875 10.8926 12.5392 11.4728 11.9414C12.053 11.3436 12.3789 10.5329 12.3789 9.6875Z" fill="black"/>
</svg>
