<svg width="39" height="39" viewBox="0 0 39 39" fill="none" xmlns="http://www.w3.org/2000/svg">
<path d="M19.5 36.5625C14.9747 36.5625 10.6348 34.7648 7.43499 31.565C4.23515 28.3652 2.4375 24.0252 2.4375 19.5C2.4375 14.9747 4.23515 10.6348 7.43499 7.43499C10.6348 4.23515 14.9747 2.4375 19.5 2.4375C24.0252 2.4375 28.3652 4.23515 31.565 7.43499C34.7648 10.6348 36.5625 14.9747 36.5625 19.5C36.5625 24.0252 34.7648 28.3652 31.565 31.565C28.3652 34.7648 24.0252 36.5625 19.5 36.5625ZM19.5 39C24.6717 39 29.6316 36.9455 33.2886 33.2886C36.9455 29.6316 39 24.6717 39 19.5C39 14.3283 36.9455 9.36837 33.2886 5.71142C29.6316 2.05446 24.6717 0 19.5 0C14.3283 0 9.36837 2.05446 5.71142 5.71142C2.05446 9.36837 0 14.3283 0 19.5C0 24.6717 2.05446 29.6316 5.71142 33.2886C9.36837 36.9455 14.3283 39 19.5 39Z" fill="black"/>
<path d="M11.3248 11.3244C11.4381 11.2109 11.5726 11.1208 11.7206 11.0594C11.8687 10.9979 12.0274 10.9663 12.1877 10.9663C12.348 10.9663 12.5068 10.9979 12.6548 11.0594C12.8029 11.1208 12.9374 11.2109 13.0506 11.3244L19.5002 17.7764L25.9498 11.3244C26.0632 11.211 26.1977 11.1212 26.3457 11.0598C26.4938 10.9985 26.6525 10.9669 26.8127 10.9669C26.973 10.9669 27.1317 10.9985 27.2797 11.0598C27.4278 11.1212 27.5623 11.211 27.6756 11.3244C27.7889 11.4377 27.8788 11.5722 27.9401 11.7203C28.0014 11.8683 28.033 12.027 28.033 12.1872C28.033 12.3475 28.0014 12.5062 27.9401 12.6542C27.8788 12.8023 27.7889 12.9368 27.6756 13.0501L21.2235 19.4997L27.6756 25.9494C27.7889 26.0627 27.8788 26.1972 27.9401 26.3452C28.0014 26.4933 28.033 26.652 28.033 26.8122C28.033 26.9725 28.0014 27.1312 27.9401 27.2792C27.8788 27.4273 27.7889 27.5618 27.6756 27.6751C27.5623 27.7884 27.4278 27.8783 27.2797 27.9396C27.1317 28.001 26.973 28.0325 26.8127 28.0325C26.6525 28.0325 26.4938 28.001 26.3457 27.9396C26.1977 27.8783 26.0632 27.7884 25.9498 27.6751L19.5002 21.223L13.0506 27.6751C12.9373 27.7884 12.8028 27.8783 12.6547 27.9396C12.5067 28.001 12.348 28.0325 12.1877 28.0325C12.0275 28.0325 11.8688 28.001 11.7207 27.9396C11.5727 27.8783 11.4382 27.7884 11.3248 27.6751C11.2115 27.5618 11.1216 27.4273 11.0603 27.2792C10.999 27.1312 10.9674 26.9725 10.9674 26.8122C10.9674 26.652 10.999 26.4933 11.0603 26.3452C11.1216 26.1972 11.2115 26.0627 11.3248 25.9494L17.7769 19.4997L11.3248 13.0501C11.2114 12.9369 11.1213 12.8024 11.0599 12.6543C10.9984 12.5063 10.9668 12.3475 10.9668 12.1872C10.9668 12.0269 10.9984 11.8682 11.0599 11.7201C11.1213 11.5721 11.2114 11.4376 11.3248 11.3244Z" fill="black"/>
</svg>
