<svg width="39" height="39" viewBox="0 0 39 39" fill="none" xmlns="http://www.w3.org/2000/svg">
<path d="M19.5 36.5625C14.9747 36.5625 10.6348 34.7648 7.43499 31.565C4.23515 28.3652 2.4375 24.0252 2.4375 19.5C2.4375 14.9747 4.23515 10.6348 7.43499 7.43499C10.6348 4.23515 14.9747 2.4375 19.5 2.4375C24.0252 2.4375 28.3652 4.23515 31.565 7.43499C34.7648 10.6348 36.5625 14.9747 36.5625 19.5C36.5625 24.0252 34.7648 28.3652 31.565 31.565C28.3652 34.7648 24.0252 36.5625 19.5 36.5625ZM19.5 39C24.6717 39 29.6316 36.9455 33.2886 33.2886C36.9455 29.6316 39 24.6717 39 19.5C39 14.3283 36.9455 9.36837 33.2886 5.71142C29.6316 2.05446 24.6717 0 19.5 0C14.3283 0 9.36837 2.05446 5.71142 5.71142C2.05446 9.36837 0 14.3283 0 19.5C0 24.6717 2.05446 29.6316 5.71142 33.2886C9.36837 36.9455 14.3283 39 19.5 39Z" fill="black"/>
<path d="M9.56641 18.1318C9.01412 18.1318 8.56641 18.5796 8.56641 19.1318C8.56641 19.6841 9.01412 20.1318 9.56641 20.1318L9.56641 18.1318ZM29.4056 19.8389C29.7961 19.4484 29.7961 18.8153 29.4056 18.4247L23.0416 12.0608C22.6511 11.6702 22.0179 11.6702 21.6274 12.0608C21.2369 12.4513 21.2369 13.0845 21.6274 13.475L27.2843 19.1318L21.6274 24.7887C21.2369 25.1792 21.2369 25.8124 21.6274 26.2029C22.0179 26.5934 22.6511 26.5934 23.0416 26.2029L29.4056 19.8389ZM9.56641 20.1318L28.6985 20.1318L28.6985 18.1318L9.56641 18.1318L9.56641 20.1318Z" fill="black"/>
</svg>
