<svg width="39" height="39" viewBox="0 0 39 39" fill="none" xmlns="http://www.w3.org/2000/svg">
<circle cx="19.5" cy="19.5" r="19.5" fill="#DD9120"/>
<path d="M10 19C9.44772 19 9 19.4477 9 20C9 20.5523 9.44772 21 10 21L10 19ZM29.8392 20.7071C30.2297 20.3166 30.2297 19.6834 29.8392 19.2929L23.4752 12.9289C23.0847 12.5384 22.4515 12.5384 22.061 12.9289C21.6705 13.3195 21.6705 13.9526 22.061 14.3431L27.7179 20L22.061 25.6569C21.6705 26.0474 21.6705 26.6805 22.061 27.0711C22.4515 27.4616 23.0847 27.4616 23.4752 27.0711L29.8392 20.7071ZM10 21L29.1321 21L29.1321 19L10 19L10 21Z" fill="white"/>
</svg>
