<svg width="16" height="16" viewBox="0 0 16 16" fill="none" xmlns="http://www.w3.org/2000/svg">
<circle cx="8" cy="8" r="8" fill="#DD6B20"/>
<path d="M4.10254 7.70508C3.8264 7.70508 3.60254 7.92894 3.60254 8.20508C3.60254 8.48122 3.8264 8.70508 4.10254 8.70508L4.10254 7.70508ZM12.3051 8.55863C12.5004 8.36337 12.5004 8.04679 12.3051 7.85152L9.12317 4.66954C8.9279 4.47428 8.61132 4.47428 8.41606 4.66954C8.2208 4.86481 8.2208 5.18139 8.41606 5.37665L11.2445 8.20508L8.41606 11.0335C8.2208 11.2288 8.2208 11.5453 8.41606 11.7406C8.61132 11.9359 8.9279 11.9359 9.12317 11.7406L12.3051 8.55863ZM4.10254 8.70508L11.9516 8.70508L11.9516 7.70508L4.10254 7.70508L4.10254 8.70508Z" fill="white"/>
</svg>
