<svg width="16" height="18" viewBox="0 0 16 18" fill="none" xmlns="http://www.w3.org/2000/svg">
<rect y="4.92285" width="16.0007" height="12.3082" fill="#3182CE"/>
<path d="M7.38492 3.69246H0L2.95397 0H7.38492V3.69246Z" fill="#3182CE"/>
<path d="M8.61508 3.69246H16L13.046 0H8.61508V3.69246Z" fill="#3182CE"/>
<path d="M8.375 14C8.375 14.2071 8.20711 14.375 8 14.375C7.79289 14.375 7.625 14.2071 7.625 14H8.375ZM7.73483 7.73484C7.88128 7.58839 8.11872 7.58839 8.26517 7.73484L10.6517 10.1213C10.7981 10.2678 10.7981 10.5052 10.6517 10.6517C10.5052 10.7981 10.2678 10.7981 10.1213 10.6517L8 8.53033L5.87868 10.6517C5.73223 10.7981 5.4948 10.7981 5.34835 10.6517C5.2019 10.5052 5.2019 10.2678 5.34835 10.1213L7.73483 7.73484ZM7.625 14V8H8.375V14H7.625Z" fill="white"/>
</svg>
