<?xml version="1.0" standalone="no"?>
<!DOCTYPE svg PUBLIC "-//W3C//DTD SVG 1.0//EN" "http://www.w3.org/TR/2001/REC-SVG-20010904/DTD/svg10.dtd">
<svg xmlns="http://www.w3.org/2000/svg" xmlns:xlink="http://www.w3.org/1999/xlink" id="body_1" width="39" height="38">

<g transform="matrix(1.5 0 0 1.5 -0 0.25000048)">
    <path d="M13.1586 21.7213C 12.7902 21.2193 12.4386 20.7519 12.1008 20.2769C 10.6084 18.1764 9.18225 16.034 8.01098 13.7325C 7.46554 12.6611 6.93842 11.5723 6.75372 10.3723C 6.50441 8.75292 6.94147 7.27537 7.8675 5.94935C 8.60647 4.88891 9.64573 4.07519 10.8509 3.6134C 12.056 3.15161 13.3716 3.063 14.6275 3.35904C 17.2168 3.96618 19.1493 6.057 19.5807 8.68812C 19.7771 9.88506 19.5131 11.0004 19.0694 12.0953C 18.3632 13.8356 17.4448 15.4626 16.416 17.0259C 15.4136 18.5483 14.3512 20.0305 13.3122 21.53C 13.2802 21.5815 13.2344 21.6289 13.1586 21.7213zM8.78284 9.51261C 8.77419 11.932 10.7239 13.9126 13.1286 13.9274C 15.5545 13.9427 17.5414 11.9718 17.546 9.54578C 17.5387 8.38815 17.0761 7.28019 16.2587 6.46265C 15.4414 5.64511 14.3353 5.18406 13.1808 5.17969C 12.0263 5.17533 10.9168 5.62799 10.0933 6.43932C 9.26978 7.25065 8.79885 8.35508 8.78284 9.51261z" stroke="none" fill="#3182CE" fill-rule="nonzero" />
    <path d="M10.5811 8.74829L13.3205 8.74829L13.3205 7.12891L16.0604 9.52074L13.3205 11.9988L13.3205 10.3794L10.5811 10.3794L10.5811 8.74829z" stroke="none" fill="#3182CE" fill-rule="nonzero" />
</g>
</svg>