<svg width="28" height="27" viewBox="0 0 28 27" fill="none" xmlns="http://www.w3.org/2000/svg">
<path d="M18.0818 14.8567L23.8648 20.6425L21.8982 22.592C21.205 21.8756 20.4692 21.1042 19.7256 20.3499C18.6401 19.2478 17.5415 18.1562 16.4626 17.047C16.25 16.8294 16.0998 16.8156 15.8363 16.9699C11.4823 19.5173 6.11518 16.7385 5.61655 11.6878C5.25984 8.061 7.96669 4.75487 11.5776 4.31736C15.6007 3.82971 19.4527 7.04822 19.1464 11.6459C19.0916 12.4796 18.7229 13.2946 18.4713 14.1096C18.3913 14.3669 18.2198 14.5967 18.0818 14.8567ZM17.7607 11.1225C17.7607 8.14696 15.3031 5.67122 12.3755 5.69106C9.44778 5.71089 7.0171 8.14365 7.01984 11.0597C7.01984 14.071 9.41217 16.5021 12.376 16.5087C15.3108 16.5159 17.7623 14.0633 17.7607 11.1225Z" fill="#3182CE"/>
<path d="M8.71191 11.0954L9.72616 10.043L11.3305 11.847L14.7716 8.31055L15.8494 9.35363L11.4029 13.84L8.71191 11.0954Z" fill="#3182CE"/>
</svg>
