<svg width="20" height="20" viewBox="0 0 19 19" fill="none" xmlns="http://www.w3.org/2000/svg">
<circle cx="6.91455" cy="6.5" r="6.5" fill="white"/>
<path d="M12.4968 10.5882L18.2798 16.3739L16.3132 18.3234C15.6201 17.6071 14.8842 16.8357 14.1406 16.0813C13.0552 14.9793 11.9565 13.8877 10.8776 12.7785C10.665 12.5608 10.5149 12.5471 10.2513 12.7013C5.89734 15.2487 0.530221 12.4699 0.0315907 7.41926C-0.325122 3.79244 2.38173 0.486318 5.99269 0.0488077C10.0157 -0.438846 13.8678 2.77967 13.5615 7.37738C13.5067 8.21108 13.1379 9.02604 12.8864 9.841C12.8064 10.0983 12.6349 10.3281 12.4968 10.5882ZM12.1757 6.85392C12.1757 3.8784 9.71817 1.40267 6.79049 1.4225C3.86282 1.44234 1.43214 3.8751 1.43488 6.7911C1.43488 9.80243 3.82721 12.2335 6.79104 12.2401C9.72584 12.2473 12.1773 9.79471 12.1757 6.85392V6.85392Z" fill="#2E688E"/>
<path d="M3.12695 6.82685L4.1412 5.7744L5.74558 7.57844L9.18668 4.04199L10.2645 5.08507L5.81791 9.57148L3.12695 6.82685Z" fill="#2E688E"/>
</svg>
