<svg width="20" height="20" viewBox="0 0 20 20" fill="none" xmlns="http://www.w3.org/2000/svg">
<ellipse cx="7.92188" cy="6.64522" rx="5.48438" ry="5.45161" fill="white"/>
<path d="M7.66441 19.5903C7.28187 19.0682 6.91676 18.5822 6.56592 18.0882C5.01619 15.9036 3.53516 13.6756 2.31883 11.282C1.75242 10.1677 1.20502 9.03539 1.01322 7.78739C0.754313 6.10322 1.20819 4.56657 2.16983 3.18751C2.93723 2.08465 4.01645 1.23838 5.26795 0.758119C6.51944 0.27786 7.88563 0.18571 9.18983 0.493586C11.8787 1.12501 13.8855 3.29946 14.3336 6.03583C14.5375 7.28065 14.2633 8.44057 13.8026 9.57926C13.0692 11.3892 12.1155 13.0813 11.0471 14.7071C10.0062 16.2904 8.90293 17.8319 7.82398 19.3913C7.79069 19.4449 7.74314 19.4943 7.66441 19.5903ZM3.12038 6.8933C3.1114 9.40947 5.13613 11.4693 7.63324 11.4847C10.1525 11.5006 12.2158 9.45086 12.2206 6.92779C12.213 5.72386 11.7326 4.57158 10.8838 3.72134C10.035 2.8711 8.88636 2.39161 7.68749 2.38707C6.48862 2.38252 5.3364 2.85329 4.48122 3.69707C3.62604 4.54086 3.137 5.68947 3.12038 6.8933V6.8933Z" fill="#2E688E"/>
<path d="M4.98779 6.09847H7.83257V4.41431L10.6779 6.90182L7.83257 9.479V7.79484H4.98779V6.09847Z" fill="#2E688E"/>
</svg>
