<svg width="25" height="24" viewBox="0 0 25 24" fill="none" xmlns="http://www.w3.org/2000/svg">
<path d="M13.8198 0.475538C12.6515 0.00815384 11.3481 0.00815384 10.1798 0.475538L2.12 3.70254C1.73068 3.85824 1.39688 4.12693 1.16159 4.474C0.926297 4.82107 0.800294 5.23063 0.799805 5.64994V16.3543C0.799735 16.7741 0.925476 17.1843 1.1608 17.5319C1.39613 17.8795 1.73023 18.1487 2.12 18.3045L10.1798 21.5287C10.7919 21.7738 11.4471 21.8929 12.1062 21.8787C11.7654 21.4185 11.4771 20.9217 11.2466 20.3975C11.0603 20.3566 10.8777 20.3004 10.7006 20.2295L2.6394 17.0053C2.50942 16.9532 2.39805 16.8634 2.31968 16.7473C2.24132 16.6313 2.19956 16.4944 2.1998 16.3543V5.73674L11.2998 9.37674V14.0905C11.6507 13.3283 12.1236 12.6285 12.6998 12.0185V9.37534L21.7998 5.73534V10.4407C22.301 10.6969 22.77 11.0063 23.1998 11.3619V5.64994C23.1999 5.23015 23.0741 4.81998 22.8388 4.47236C22.6035 4.12474 22.2694 3.85562 21.8796 3.69974L13.8198 0.475538ZM10.7006 1.77754C11.5351 1.44375 12.4659 1.44375 13.3004 1.77754L20.6154 4.70354L17.4248 5.97754L8.80921 2.53354L10.6992 1.77754H10.7006ZM6.92481 3.28534L15.5404 6.73074L11.9998 8.14894L3.3842 4.70214L6.92481 3.28674V3.28534ZM18.2998 23.6021C19.9707 23.6021 21.5731 22.9384 22.7546 21.7569C23.9361 20.5754 24.5998 18.973 24.5998 17.3021C24.5998 15.6313 23.9361 14.0288 22.7546 12.8474C21.5731 11.6659 19.9707 11.0021 18.2998 11.0021C16.6289 11.0021 15.0265 11.6659 13.845 12.8474C12.6636 14.0288 11.9998 15.6313 11.9998 17.3021C11.9998 18.973 12.6636 20.5754 13.845 21.7569C15.0265 22.9384 16.6289 23.6021 18.2998 23.6021ZM18.7912 14.0051L18.7954 14.0079L21.5954 16.8079C21.7267 16.9394 21.8003 17.1176 21.8002 17.3033C21.8001 17.4891 21.7261 17.6672 21.5947 17.7984C21.5296 17.8634 21.4524 17.915 21.3674 17.9501C21.2824 17.9852 21.1913 18.0033 21.0993 18.0032C20.9136 18.0031 20.7355 17.9292 20.6042 17.7977L18.9998 16.1933V20.1035C18.9998 20.2892 18.9261 20.4672 18.7948 20.5985C18.6635 20.7298 18.4855 20.8035 18.2998 20.8035C18.1142 20.8035 17.9361 20.7298 17.8048 20.5985C17.6736 20.4672 17.5998 20.2892 17.5998 20.1035V16.1933L15.9954 17.7977C15.9304 17.8628 15.8532 17.9145 15.7683 17.9497C15.6833 17.985 15.5923 18.0032 15.5003 18.0032C15.4083 18.0033 15.3172 17.9852 15.2322 17.9501C15.1472 17.915 15.07 17.8634 15.0049 17.7984C14.9398 17.7334 14.8882 17.6563 14.8529 17.5713C14.8177 17.4864 14.7995 17.3953 14.7994 17.3033C14.7994 17.2114 14.8174 17.1203 14.8525 17.0353C14.8877 16.9503 14.9392 16.873 15.0042 16.8079L17.8042 14.0079C17.9347 13.8778 18.1113 13.8043 18.2956 13.8035H18.304C18.4865 13.8044 18.6615 13.8768 18.7912 14.0051Z" fill="black"/>
</svg>
