<svg width="14" height="19" viewBox="0 0 14 19" fill="none" xmlns="http://www.w3.org/2000/svg">
<path d="M7.15858 18.7213C6.7902 18.2193 6.43862 17.7519 6.10077 17.2769C4.60844 15.1764 3.18225 13.034 2.01098 10.7325C1.46554 9.66109 0.938418 8.57231 0.753721 7.37231C0.504406 5.75292 0.941471 4.27537 1.8675 2.94935C2.60647 1.88891 3.64573 1.07519 4.85087 0.613398C6.05601 0.15161 7.3716 0.0630039 8.6275 0.359039C11.2168 0.966182 13.1493 3.057 13.5807 5.68812C13.7771 6.88506 13.5131 8.00037 13.0694 9.09527C12.3632 10.8356 11.4448 12.4626 10.416 14.0259C9.41361 15.5483 8.35122 17.0305 7.31224 18.53C7.28018 18.5815 7.23439 18.6289 7.15858 18.7213ZM2.78284 6.51261C2.77419 8.932 4.72394 10.9126 7.12856 10.9274C9.55454 10.9427 11.5414 8.9718 11.546 6.54578C11.5387 5.38815 11.0761 4.28019 10.2587 3.46265C9.44137 2.64511 8.33526 2.18406 7.1808 2.17969C6.02633 2.17533 4.91679 2.62799 4.09328 3.43932C3.26978 4.25065 2.79885 5.35508 2.78284 6.51261Z" fill="#2E688E"/>
</svg>
