<svg width="24" height="26" viewBox="0 0 24 26" fill="none" xmlns="http://www.w3.org/2000/svg">
<path d="M10.8672 1.96532C11.2137 1.77287 11.6036 1.67188 12 1.67188C12.3964 1.67188 12.7863 1.77287 13.1328 1.96532L21.9003 6.83499C22.0821 6.93607 22.2335 7.08391 22.339 7.26319C22.4444 7.44247 22.5 7.64667 22.5 7.85466V17.4622C22.4999 17.8782 22.3885 18.2867 22.1775 18.6453C21.9664 19.0039 21.6633 19.2995 21.2995 19.5015L13.1328 24.0398C12.7863 24.2323 12.3964 24.3333 12 24.3333C11.6036 24.3333 11.2137 24.2323 10.8672 24.0398L2.7005 19.5015C2.33691 19.2996 2.0339 19.0042 1.82283 18.6458C1.61176 18.2875 1.50031 17.8792 1.5 17.4633V7.85466C1.49999 7.64667 1.55558 7.44247 1.66102 7.26319C1.76645 7.08391 1.9179 6.93607 2.09967 6.83499L10.8683 1.96532H10.8672Z" stroke="black" stroke-width="2" stroke-linecap="round" stroke-linejoin="round"/>
<path d="M12 13.0052V24.6719M1.5 7.17188L12 13.0052L1.5 7.17188ZM12 13.0052L22.5 7.17188L12 13.0052Z" stroke="black" stroke-width="2" stroke-linejoin="round"/>
<path d="M5 13.3827L8.5 15.3333M6.75 10.0833L17.25 4.25L6.75 10.0833Z" stroke="black" stroke-width="2" stroke-linecap="round" stroke-linejoin="round"/>
</svg>
