<svg width="17" height="17" viewBox="0 0 17 17" fill="none" xmlns="http://www.w3.org/2000/svg">
<path d="M11.4986 9.65237L16.4555 14.5809L14.7699 16.2416C14.1758 15.6314 13.545 14.9743 12.9077 14.3317C11.9772 13.3929 11.0356 12.4631 10.1108 11.5182C9.92855 11.3328 9.79986 11.321 9.57395 11.4525C5.84198 13.6225 1.24158 11.2553 0.814187 6.95292C0.508434 3.86341 2.82859 1.04708 5.9237 0.674389C9.372 0.258981 12.6738 3.00068 12.4112 6.91725C12.3642 7.62743 12.0482 8.32166 11.8326 9.01588C11.764 9.23509 11.617 9.43082 11.4986 9.65237ZM11.2234 6.47133C11.2234 3.93664 9.11697 1.82768 6.60753 1.84457C4.0981 1.86147 2.01466 3.93382 2.017 6.41782C2.017 8.98303 4.06757 11.054 6.608 11.0596C9.12354 11.0657 11.2248 8.97646 11.2234 6.47133V6.47133Z" fill="#2E688E"/>
</svg>
