<svg width="102" height="61" viewBox="0 0 102 61" fill="none" xmlns="http://www.w3.org/2000/svg">
<path d="M27.2 0C15.98 0 6.8 9.15 6.8 20.3333C6.8 27.0569 10.1218 33.0417 15.1946 36.7491C6.2288 41.1818 0 50.3724 0 61H6.8C6.8 49.7353 15.8984 40.6667 27.2 40.6667C38.5016 40.6667 47.6 49.7353 47.6 61H54.4C54.4 49.7353 63.4984 40.6667 74.8 40.6667C86.1016 40.6667 95.2 49.7353 95.2 61H102C102 50.3691 95.7712 41.1818 86.8054 36.7491C89.4013 34.8637 91.5144 32.3946 92.973 29.5422C94.4316 26.6899 95.1946 23.5348 95.2 20.3333C95.2 9.15 86.02 0 74.8 0C63.58 0 54.4 9.15 54.4 20.3333C54.4 27.0569 57.7218 33.0417 62.7946 36.7491C57.827 39.1835 53.7151 43.0598 51 47.8681C48.2849 43.0598 44.173 39.1835 39.2054 36.7491C41.8013 34.8637 43.9144 32.3946 45.373 29.5422C46.8316 26.6899 47.5946 23.5348 47.6 20.3333C47.6 9.15 38.42 0 27.2 0ZM27.2 6.77778C34.7582 6.77778 40.8 12.7998 40.8 20.3333C40.8 27.8668 34.7582 33.8889 27.2 33.8889C19.6418 33.8889 13.6 27.8668 13.6 20.3333C13.6 12.7998 19.6418 6.77778 27.2 6.77778ZM74.8 6.77778C82.3582 6.77778 88.4 12.7998 88.4 20.3333C88.4 27.8668 82.3582 33.8889 74.8 33.8889C67.2418 33.8889 61.2 27.8668 61.2 20.3333C61.2 12.7998 67.2418 6.77778 74.8 6.77778Z" fill="#345E80"/>
</svg>
