<svg id="Layer_1" data-name="Layer 1" xmlns="http://www.w3.org/2000/svg" viewBox="0 0 114.88 72.64"><defs><style>.cls-1{fill:#57b8cb;}</style></defs><path class="cls-1" d="M38.27,56a5,5,0,0,1-.93-.09,9.1,9.1,0,0,1-3.83-2.14c-.47-.38-.92-.73-1.38-1a7.77,7.77,0,0,0-6-1.09,9.24,9.24,0,0,0-5.81,4.12l-1.56-1a11.1,11.1,0,0,1,7-4.94,9.64,9.64,0,0,1,7.38,1.36c.52.35,1,.74,1.5,1.13a7.69,7.69,0,0,0,3,1.77c1.89.35,3.65-1.17,5.51-2.8s3.61-3.14,5.86-3.42c2.77-.34,5.06,1.38,7.28,3,1.74,1.32,3.39,2.56,5.18,2.79,2.18.27,4.34-1,6.63-2.34,2.72-1.6,5.53-3.24,8.61-2.29a11.82,11.82,0,0,1,3.65,2.2,16.37,16.37,0,0,0,2.14,1.5c3.44,1.88,4.94,1,7.43-.43a19.42,19.42,0,0,1,6-2.5l.38,1.81a17.69,17.69,0,0,0-5.45,2.29c-2.62,1.52-4.89,2.83-9.24.45a18.17,18.17,0,0,1-2.39-1.66,10.27,10.27,0,0,0-3.06-1.9c-2.3-.71-4.64.67-7.12,2.12s-5,2.94-7.81,2.58c-2.27-.29-4.19-1.74-6.06-3.14s-3.89-2.94-5.93-2.69c-1.7.21-3.31,1.62-4.87,3C42.54,54.3,40.61,56,38.27,56Z"/><path class="cls-1" d="M38.27,40.16a5,5,0,0,1-.93-.09,9.12,9.12,0,0,1-3.83-2.15c-.47-.37-.92-.73-1.38-1a7.78,7.78,0,0,0-6-1.1,9.3,9.3,0,0,0-5.81,4.13l-1.56-1a11.15,11.15,0,0,1,7-5,9.64,9.64,0,0,1,7.38,1.37c.52.35,1,.74,1.5,1.12a7.6,7.6,0,0,0,3,1.78c1.89.36,3.65-1.18,5.51-2.8S46.8,32.3,49.05,32c2.77-.34,5.06,1.38,7.28,3,1.74,1.32,3.39,2.56,5.18,2.78,2.18.27,4.34-1,6.63-2.33,2.72-1.6,5.53-3.25,8.61-2.3a11.66,11.66,0,0,1,3.65,2.21,16.37,16.37,0,0,0,2.14,1.5c3.44,1.87,4.94,1,7.43-.43A19.42,19.42,0,0,1,96,34l.38,1.81a17.69,17.69,0,0,0-5.45,2.29c-2.62,1.52-4.89,2.82-9.24.45a17.59,17.59,0,0,1-2.39-1.67A10.43,10.43,0,0,0,76.2,35c-2.3-.71-4.64.66-7.12,2.12s-5,2.94-7.81,2.58C59,39.4,57.08,38,55.21,36.55s-3.89-2.94-5.93-2.69c-1.7.21-3.31,1.62-4.87,3C42.54,38.48,40.61,40.16,38.27,40.16Z"/><path class="cls-1" d="M38.27,24.33a5,5,0,0,1-.93-.09,9.1,9.1,0,0,1-3.83-2.14,17,17,0,0,0-1.38-1,7.78,7.78,0,0,0-6-1.1,9.26,9.26,0,0,0-5.81,4.13l-1.56-1a11.08,11.08,0,0,1,7-4.95,9.64,9.64,0,0,1,7.38,1.36c.52.35,1,.75,1.5,1.13a7.72,7.72,0,0,0,3,1.78c1.89.35,3.65-1.18,5.51-2.8s3.61-3.15,5.86-3.43c2.76-.34,5.06,1.38,7.28,3.05,1.74,1.31,3.39,2.55,5.18,2.78,2.18.27,4.34-1,6.63-2.34,2.72-1.59,5.53-3.24,8.61-2.29a11.82,11.82,0,0,1,3.65,2.2,15.46,15.46,0,0,0,2.14,1.5c3.44,1.88,4.94,1,7.43-.43a19.66,19.66,0,0,1,6-2.5L96.34,20a17.75,17.75,0,0,0-5.44,2.3c-2.63,1.51-4.9,2.82-9.25.45a17.59,17.59,0,0,1-2.39-1.67,10.43,10.43,0,0,0-3.06-1.89c-2.3-.72-4.64.66-7.12,2.12s-5,2.94-7.81,2.58c-2.27-.29-4.19-1.74-6.06-3.14s-3.9-2.94-5.93-2.69c-1.69.21-3.31,1.62-4.87,3C42.54,22.65,40.61,24.33,38.27,24.33Z"/></svg>
