<svg width="76" height="76" viewBox="0 0 76 76" fill="none" xmlns="http://www.w3.org/2000/svg">
<path d="M28.3058 60.0009C26.2729 66.1746 21.3788 70.6919 14.1883 73.1011C10.9538 74.1686 7.57935 74.7522 4.17424 74.8328C3.37547 74.8328 2.60942 74.5155 2.04461 73.9507C1.4798 73.3859 1.16249 72.6199 1.16249 71.8212C1.24312 68.4163 1.82668 65.042 2.89424 61.8078C5.30364 54.6177 9.82126 49.7239 15.9953 47.6911C16.3779 47.5232 16.7913 47.4366 17.2091 47.437C17.6269 47.4374 18.0401 47.5247 18.4224 47.6934C18.8046 47.8621 19.1476 48.1085 19.4295 48.4169C19.7113 48.7254 19.926 49.089 20.0597 49.4849C20.1934 49.8807 20.2432 50.3001 20.2061 50.7162C20.169 51.1324 20.0456 51.5362 19.844 51.9022C19.6423 52.2681 19.3667 52.588 19.0346 52.8417C18.7026 53.0953 18.3214 53.2771 17.9153 53.3755C10.4989 55.86 8.20245 63.8783 7.48716 68.5085C12.1177 67.7933 20.1365 65.497 22.6212 58.081C22.9239 57.3917 23.4739 56.8407 24.1627 56.5367C24.8515 56.2327 25.6292 56.1978 26.3425 56.4387C27.0558 56.6796 27.653 57.1789 28.0164 57.8383C28.3798 58.4976 28.4831 59.2692 28.3058 60.0009ZM65.915 31.3535L62.5644 34.7415V57.8175C62.5536 59.4122 61.9184 60.9393 60.795 62.0713L48.5975 74.2305C48.0443 74.7969 47.3822 75.2456 46.6512 75.5497C45.9201 75.8537 45.1351 76.0068 44.3434 75.9998C43.7558 76.0044 43.1712 75.9155 42.6116 75.7363C41.5637 75.4223 40.621 74.829 39.8848 74.0199C39.1486 73.2108 38.6466 72.2164 38.4328 71.1436L35.4587 56.2741L19.7224 40.5387L4.85188 37.5648C3.77901 37.351 2.78463 36.8491 1.97546 36.1129C1.16629 35.3768 0.572899 34.4342 0.258969 33.3863C-0.0574358 32.3459 -0.0844336 31.239 0.180876 30.1845C0.446186 29.1299 0.993779 28.1676 1.76484 27.4008L13.9248 15.204C15.0569 14.0807 16.584 13.4456 18.1788 13.4347H41.2563L44.6446 10.0844C55.4115 -0.681947 66.4421 -0.380792 70.6961 0.259163C71.9718 0.435654 73.1548 1.0239 74.0654 1.93444C74.976 2.84497 75.5643 4.02798 75.7408 5.30352C76.3808 9.55734 76.682 20.5872 65.915 31.3535ZM6.01893 31.6546L20.2118 34.478L35.2329 19.4578H18.1788L6.01893 31.6546ZM25.4823 37.753L38.2446 50.5145L61.6609 27.0996C64.5974 24.1634 71.2985 16.258 69.7926 6.20698C59.7409 4.70121 51.8351 11.4019 48.8986 14.3382L25.4823 37.753ZM56.541 40.7646L41.5199 55.7847L44.3434 69.9767L56.541 57.8175V40.7646Z" fill="#345E80"/>
</svg>
