<svg width="71" height="67" viewBox="0 0 71 67" fill="none" xmlns="http://www.w3.org/2000/svg">
<path d="M35.5 0C42.5615 0 49.3338 2.82356 54.327 7.84954C59.3203 12.8755 62.1255 19.6922 62.1255 26.8C62.1255 33.9078 59.3203 40.7245 54.327 45.7505C49.3338 50.7764 42.5615 53.6 35.5 53.6C28.4385 53.6 21.6662 50.7764 16.673 45.7505C11.6797 40.7245 8.87454 33.9078 8.87454 26.8C8.87454 19.6922 11.6797 12.8755 16.673 7.84954C21.6662 2.82356 28.4385 0 35.5 0ZM35.5 49.1333C36.5916 49.1333 38.7705 48.1283 40.9449 43.751C42.0321 41.5623 42.9329 38.8377 43.5409 35.7333H27.4591C27.9665 38.5102 28.8395 41.2065 30.0551 43.751C32.2295 48.1283 34.4084 49.1333 35.5 49.1333ZM26.8245 31.2667H44.1755C44.4467 28.2951 44.4467 25.3049 44.1755 22.3333H26.8245C26.5535 25.3049 26.5535 28.2951 26.8245 31.2667ZM43.9935 47.436C49.2939 45.218 53.5385 41.0255 55.8419 35.7333H48.0539C47.2463 40.3474 45.8262 44.3763 43.9935 47.436ZM48.6308 31.2667H57.2441C57.8392 28.319 57.8392 25.281 57.2441 22.3333H48.6308C48.8785 25.3059 48.8785 28.2941 48.6308 31.2667ZM43.9935 6.164C45.8262 9.22367 47.2463 13.2571 48.0539 17.8667H55.8419C53.5385 12.5745 49.2939 8.38196 43.9935 6.164ZM40.9449 9.849C38.7705 5.47167 36.5916 4.46667 35.5 4.46667C34.4084 4.46667 32.2295 5.47167 30.0551 9.849C28.8405 12.3939 27.9675 15.0901 27.4591 17.8667H43.5409C43.0323 15.0902 42.1593 12.394 40.9449 9.849ZM27.0109 6.15953C21.7064 8.37665 17.4582 12.5711 15.1537 17.8667H22.9417C23.7493 13.2571 25.1693 9.22367 27.002 6.164L27.0109 6.15953ZM13.3121 26.8C13.3121 28.3276 13.463 29.8239 13.7559 31.2667H22.3692C22.1217 28.2941 22.1217 25.3059 22.3692 22.3333H13.7559C13.463 23.7761 13.3121 25.2724 13.3121 26.8ZM15.1581 35.7333C17.4615 41.0255 21.7061 45.218 27.0065 47.436C25.1738 44.3763 23.7537 40.3474 22.9461 35.7333H15.1581ZM6.65575 44.6667H10.0061C11.1155 46.2747 12.3758 47.7665 13.7603 49.1333H8.39084L5.06266 62.5333H65.9418L62.6136 49.1333H57.2397C58.6242 47.7665 59.8845 46.2747 60.9939 44.6667H64.3442C64.8392 44.6668 65.3199 44.8335 65.7098 45.1402C66.0998 45.447 66.3767 45.8762 66.4965 46.3595L70.9341 64.2262C71.0156 64.5554 71.0216 64.8989 70.9516 65.2307C70.8815 65.5626 70.7373 65.874 70.5299 66.1413C70.3224 66.4087 70.0572 66.625 69.7543 66.7738C69.4514 66.9225 69.1189 66.9999 68.7818 67H2.21818C1.88115 66.9999 1.54857 66.9225 1.24568 66.7738C0.942796 66.625 0.677564 66.4087 0.470116 66.1413C0.262667 65.874 0.118456 65.5626 0.0484261 65.2307C-0.0216034 64.8989 -0.0156101 64.5554 0.0659508 64.2262L4.50353 46.3595C4.6233 45.8762 4.90019 45.447 5.29017 45.1402C5.68015 44.8335 6.16082 44.6668 6.65575 44.6667Z" fill="#345E80"/>
</svg>
