<svg width="4117" height="3483" viewBox="0 0 4117 3483" fill="none" xmlns="http://www.w3.org/2000/svg">
<path d="M3271.71 3199.78L3633.39 2792.8L2819.51 2657.14L3271.71 3199.78Z" fill="#225572"/>
<path d="M287.461 893.563L649.208 486.583L884.578 972.922L287.461 893.563Z" fill="#225572"/>
<path d="M3633.45 486.583H649.203V2792.81H3633.45V486.583Z" fill="#225572"/>
<path d="M3271.71 893.563H287.461V3199.79H3271.71V893.563Z" fill="#2E688E"/>
<path d="M2503.01 2040.94C2503.02 1905.49 2462.87 1773.08 2387.63 1660.45C2312.4 1547.82 2205.45 1460.03 2080.32 1408.19C1955.2 1356.35 1817.51 1342.79 1684.67 1369.21C1551.84 1395.63 1429.82 1460.85 1334.05 1556.63C1238.28 1652.41 1173.06 1774.44 1146.64 1907.29C1120.22 2040.14 1133.79 2177.84 1185.62 2302.98C1237.46 2428.12 1325.23 2535.07 1437.85 2610.32C1550.47 2685.56 1682.87 2725.72 1818.31 2725.71C1908.23 2725.71 1997.26 2707.99 2080.33 2673.58C2163.41 2639.17 2238.89 2588.73 2302.47 2525.14C2366.05 2461.56 2416.48 2386.07 2450.89 2302.99C2485.3 2219.91 2503.01 2130.87 2503.01 2040.94Z" fill="white"/>
<path fill-rule="evenodd" clip-rule="evenodd" d="M2368.28 2037.34C2368.28 2146.15 2336.01 2252.52 2275.57 2342.99C2215.12 2433.46 2129.2 2503.98 2028.68 2545.61C1928.16 2587.25 1817.56 2598.14 1710.85 2576.91C1604.14 2555.68 1506.12 2503.27 1429.19 2426.33C1352.26 2349.38 1299.87 2251.35 1278.66 2144.63C1257.44 2037.91 1268.34 1927.29 1309.98 1826.77C1351.63 1726.24 1422.15 1640.33 1512.62 1579.88C1603.09 1519.44 1709.45 1487.19 1818.25 1487.2C1964.13 1487.21 2104.03 1545.18 2207.18 1648.35C2310.33 1751.52 2368.28 1891.44 2368.28 2037.34Z" fill="#2E688E"/>
<path fill-rule="evenodd" clip-rule="evenodd" d="M1836.98 1744.92C1839.22 1752.17 1839.99 1759.81 1839.23 1767.36C1880.4 1772.55 1931.21 1768.16 1976.1 1769.62V1798.84C1934.69 1809.76 1877.9 1805.3 1839.23 1819.03C1847.04 1975.18 1840.82 2148.42 1854.91 2303.97C1941.39 2301.28 2013.49 2265.17 2056.98 2211.92C2053.01 2206.12 2042.22 2207.28 2034.53 2205.15C2058.93 2179.65 2085.89 2156.35 2099.61 2119.75C2115.71 2157.57 2104.12 2221.92 2088.39 2249.92C2080.7 2245.65 2080.46 2233.94 2077.16 2225.52C2052.07 2257.39 2021.7 2284.72 1987.38 2306.34C1932.49 2339.77 1899.49 2322.08 1847.83 2403.58C1836.91 2420.47 1839.9 2477.57 1821.24 2476.77C1808.13 2476.35 1803.92 2416.75 1796.84 2402.66C1772.44 2355.51 1716.94 2342.09 1664.37 2310.61C1628.31 2288.56 1597.02 2259.53 1572.33 2225.22C1567.14 2231.99 1565.68 2242.54 1561.11 2249.62C1540.31 2224 1535 2161.53 1545.37 2119.45C1562.73 2151.51 1585.41 2180.39 1612.46 2204.84C1604.91 2205.95 1597.41 2207.46 1590.02 2209.36C1629.91 2264.56 1701.08 2300.31 1785.19 2303.66C1800.14 2274.99 1792.27 2227.6 1794.16 2184.65C1799.34 2067.17 1800.56 1941.82 1803.19 1818.66C1764.88 1806.1 1712.98 1807.07 1668.45 1800.67V1769.25C1712.67 1767.79 1762.69 1772.18 1803.19 1767C1817.95 1741.87 1786.66 1736.5 1778.48 1726.62C1772.5 1718.27 1768.56 1708.63 1767.01 1698.47C1765.45 1688.32 1766.31 1677.94 1769.52 1668.18C1791.17 1607.18 1895.77 1639.94 1874.97 1708.62C1869.97 1725.46 1855.64 1733.75 1836.85 1744.55L1836.98 1744.92ZM1818.92 1713.14C1851.86 1715.88 1852.53 1654.09 1812.15 1670.44C1786.96 1680.69 1802.94 1711.73 1818.92 1713.14Z" fill="white"/>
<path fill-rule="evenodd" clip-rule="evenodd" d="M1812.22 1670.86C1852.65 1654.46 1851.98 1716.25 1818.99 1713.56C1803.07 1712.22 1787.09 1681.17 1812.22 1670.86Z" fill="#2E688E"/>
<path d="M1846.31 1735.77H1821.73V2316.16H1846.31V1735.77Z" fill="white"/>
<path d="M1823.68 1737.47H1799.1V2316.16H1823.68V1737.47Z" fill="white"/>
<path d="M1818.25 2684.59C1690.96 2684.58 1566.54 2646.82 1460.71 2576.09C1354.88 2505.36 1272.39 2404.83 1223.69 2287.21C1174.99 2169.6 1162.25 2040.19 1187.09 1915.33C1211.93 1790.48 1273.23 1675.8 1363.24 1585.79C1453.26 1495.78 1567.93 1434.48 1692.78 1409.65C1817.62 1384.82 1947.02 1397.57 2064.62 1446.29C2182.22 1495.01 2282.73 1577.51 2353.45 1683.35C2424.16 1789.2 2461.91 1913.64 2461.91 2040.94C2461.71 2211.6 2393.84 2375.21 2273.17 2495.88C2152.5 2616.55 1988.89 2684.42 1818.25 2684.59ZM1818.25 1446.88C1700.77 1446.88 1585.92 1481.72 1488.24 1547C1390.56 1612.27 1314.42 1705.05 1269.46 1813.6C1224.5 1922.15 1212.74 2041.6 1235.66 2156.84C1258.58 2272.07 1315.15 2377.93 1398.23 2461.01C1481.3 2544.09 1587.14 2600.67 1702.37 2623.59C1817.59 2646.51 1937.03 2634.75 2045.57 2589.78C2154.11 2544.82 2246.88 2468.68 2312.15 2370.98C2377.42 2273.29 2412.26 2158.44 2412.26 2040.94C2412.1 1883.44 2349.46 1732.43 2238.1 1621.05C2126.74 1509.68 1975.74 1447.04 1818.25 1446.88Z" fill="#2E688E"/>
<path d="M3429.92 1187.51C3692.13 1187.51 3904.69 974.934 3904.69 712.704C3904.69 450.473 3692.13 237.894 3429.92 237.894C3167.72 237.894 2955.16 450.473 2955.16 712.704C2955.16 974.934 3167.72 1187.51 3429.92 1187.51Z" fill="#89C4C8"/>
<path d="M3802.16 712.46C3802.16 508.847 3633.02 339.211 3431.44 340.37C3229.86 341.529 3062.56 508.298 3062.74 707.946C3062.74 914.181 3227.42 1080.58 3431.5 1081.07C3633.51 1081.68 3802.28 913.815 3802.16 712.46Z" fill="white"/>
<path d="M3179.36 710.63L3249.2 638.53L3359.47 762.051L3596.43 519.949L3670.59 591.317L3364.47 898.504L3179.36 710.63Z" fill="#89C4C8"/>
</svg>
