<svg width="4066" height="3439" viewBox="0 0 4066 3439" fill="none" xmlns="http://www.w3.org/2000/svg">
<path d="M3231.18 3159.36L3588.38 2757.52L2784.58 2623.58L3231.18 3159.36Z" fill="#225572"/>
<path d="M283.898 882.276L641.164 480.437L873.619 960.632L283.898 882.276Z" fill="#225572"/>
<path d="M3588.44 480.437H641.164V2757.52H3588.44V480.437Z" fill="#225572"/>
<path d="M3231.18 882.275H283.898V3159.36H3231.18V882.275Z" fill="#2E688E"/>
<path d="M2472.01 2015.16C2472.02 1881.42 2432.37 1750.68 2358.06 1639.47C2283.75 1528.27 2178.13 1441.59 2054.56 1390.4C1930.98 1339.22 1795 1325.82 1663.81 1351.91C1532.61 1378 1412.11 1442.4 1317.52 1536.97C1222.94 1631.54 1158.53 1752.03 1132.44 1883.2C1106.34 2014.37 1119.74 2150.33 1170.94 2273.89C1222.13 2397.44 1308.82 2503.05 1420.04 2577.34C1531.27 2651.64 1662.03 2691.28 1795.79 2691.27C1884.59 2691.27 1972.52 2673.78 2054.57 2639.81C2136.61 2605.83 2211.15 2556.03 2273.95 2493.24C2336.74 2430.46 2386.55 2355.93 2420.53 2273.9C2454.52 2191.87 2472.01 2103.95 2472.01 2015.16Z" fill="white"/>
<path fill-rule="evenodd" clip-rule="evenodd" d="M2338.95 2011.6C2338.95 2119.04 2307.08 2224.06 2247.38 2313.39C2187.68 2402.72 2102.83 2472.34 2003.56 2513.46C1904.28 2554.57 1795.05 2565.32 1689.66 2544.36C1584.27 2523.39 1487.47 2471.65 1411.49 2395.68C1335.52 2319.71 1283.78 2222.91 1262.82 2117.54C1241.87 2012.17 1252.63 1902.95 1293.76 1803.69C1334.89 1704.44 1404.53 1619.61 1493.88 1559.93C1583.23 1500.25 1688.28 1468.4 1795.73 1468.41C1939.8 1468.43 2077.97 1525.66 2179.85 1627.53C2281.72 1729.4 2338.95 1867.55 2338.95 2011.6Z" fill="#2E688E"/>
<path fill-rule="evenodd" clip-rule="evenodd" d="M1814.22 1722.87C1816.44 1730.04 1817.2 1737.57 1816.45 1745.04C1857.11 1750.16 1907.29 1745.82 1951.62 1747.26V1776.11C1910.72 1786.89 1854.64 1782.5 1816.45 1796.05C1824.16 1950.23 1818.02 2121.28 1831.93 2274.86C1917.35 2272.21 1988.55 2236.55 2031.5 2183.98C2027.58 2178.25 2016.92 2179.4 2009.33 2177.29C2033.42 2152.12 2060.05 2129.11 2073.6 2092.97C2089.5 2130.31 2078.06 2193.85 2062.52 2221.5C2054.93 2217.28 2054.69 2205.72 2051.43 2197.41C2026.65 2228.87 1996.66 2255.86 1962.77 2277.21C1908.55 2310.21 1875.96 2292.75 1824.94 2373.21C1814.16 2389.89 1817.11 2446.27 1798.68 2445.48C1785.73 2445.06 1781.57 2386.22 1774.58 2372.31C1750.49 2325.75 1695.67 2312.5 1643.75 2281.42C1608.14 2259.65 1577.24 2230.98 1552.85 2197.11C1547.73 2203.79 1546.29 2214.21 1541.77 2221.2C1521.23 2195.9 1515.99 2134.23 1526.23 2092.67C1543.37 2124.33 1565.78 2152.85 1592.49 2176.99C1585.03 2178.09 1577.63 2179.57 1570.32 2181.45C1609.72 2235.95 1680.01 2271.25 1763.08 2274.56C1777.84 2246.25 1770.07 2199.45 1771.93 2157.05C1777.05 2041.06 1778.26 1917.29 1780.85 1795.69C1743.02 1783.28 1691.76 1784.24 1647.79 1777.92V1746.9C1691.46 1745.46 1740.85 1749.79 1780.85 1744.68C1795.43 1719.86 1764.53 1714.56 1756.45 1704.8C1750.54 1696.56 1746.66 1687.04 1745.12 1677.02C1743.58 1666.99 1744.43 1656.74 1747.6 1647.11C1768.98 1586.88 1872.29 1619.22 1851.75 1687.04C1846.81 1703.66 1832.65 1711.85 1814.1 1722.51L1814.22 1722.87ZM1796.39 1691.49C1828.92 1694.2 1829.58 1633.19 1789.7 1649.33C1764.83 1659.45 1780.61 1690.11 1796.39 1691.49Z" fill="white"/>
<path fill-rule="evenodd" clip-rule="evenodd" d="M1789.76 1649.76C1829.7 1633.55 1829.04 1694.57 1796.45 1691.92C1780.73 1690.59 1764.95 1659.93 1789.76 1649.76Z" fill="#2E688E"/>
<path d="M1823.43 1713.84H1799.16V2286.91H1823.43V1713.84Z" fill="white"/>
<path d="M1801.09 1715.53H1776.81V2286.91H1801.09V1715.53Z" fill="white"/>
<path d="M1795.73 2650.68C1670.01 2650.67 1547.13 2613.39 1442.61 2543.55C1338.09 2473.71 1256.63 2374.45 1208.53 2258.32C1160.43 2142.19 1147.85 2014.41 1172.38 1891.14C1196.92 1767.86 1257.46 1654.63 1346.35 1565.75C1435.25 1476.88 1548.51 1416.36 1671.8 1391.84C1795.1 1367.33 1922.9 1379.91 2039.04 1428.02C2155.18 1476.12 2254.45 1557.58 2324.29 1662.09C2394.13 1766.6 2431.41 1889.47 2431.41 2015.16C2431.22 2183.66 2364.18 2345.21 2245.01 2464.35C2125.83 2583.49 1964.25 2650.5 1795.73 2650.68ZM1795.73 1428.6C1679.7 1428.6 1566.27 1463 1469.8 1527.45C1373.33 1591.9 1298.13 1683.51 1253.73 1790.69C1209.33 1897.87 1197.71 2015.81 1220.35 2129.59C1242.99 2243.37 1298.86 2347.88 1380.9 2429.92C1462.95 2511.95 1567.48 2567.81 1681.28 2590.44C1795.07 2613.08 1913.03 2601.46 2020.23 2557.07C2127.42 2512.67 2219.04 2437.49 2283.51 2341.03C2347.97 2244.57 2382.37 2131.17 2382.37 2015.16C2382.21 1859.64 2320.36 1710.54 2210.37 1600.57C2100.39 1490.61 1951.27 1428.76 1795.73 1428.6Z" fill="#2E688E"/>
<path d="M3387.43 1172.51C3646.39 1172.51 3856.32 962.618 3856.32 703.7C3856.32 444.782 3646.39 234.888 3387.43 234.888C3128.47 234.888 2918.55 444.782 2918.55 703.7C2918.55 962.618 3128.47 1172.51 3387.43 1172.51Z" fill="#89C4C8"/>
<path d="M3755.06 703.459C3755.06 502.419 3588.02 334.926 3388.94 336.07C3189.85 337.215 3024.62 501.877 3024.8 699.002C3024.8 902.632 3187.44 1066.93 3389 1067.41C3588.5 1068.02 3755.18 902.271 3755.06 703.459Z" fill="white"/>
<path d="M3273.22 752.424L3507.18 513.381L3580.49 583.847L3278.1 887.154C3217.14 825.3 3270.69 877.939 3208.95 815.242L3273.22 752.424Z" fill="#89C4C8"/>
<path d="M3342.55 578.788L3581.64 813.074L3511.1 886.311L3207.8 583.727C3269.67 522.777 3217.02 576.319 3279.73 514.525L3342.55 578.788Z" fill="#89C4C8"/>
</svg>
