<svg width="4116" height="3482" viewBox="0 0 4116 3482" fill="none" xmlns="http://www.w3.org/2000/svg">
<path d="M3270.91 3198.87L3632.51 2792L2818.82 2656.38L3270.91 3198.87Z" fill="#225572"/>
<path d="M287.391 893.307L649.05 486.443L884.363 972.643L287.391 893.307Z" fill="#225572"/>
<path d="M3632.57 486.443H649.047V2792H3632.57V486.443Z" fill="#225572"/>
<path d="M3270.91 893.307H287.391V3198.87H3270.91V893.307Z" fill="#2E688E"/>
<path d="M2502.41 2040.35C2502.42 1904.94 2462.28 1772.57 2387.06 1659.97C2311.84 1547.37 2204.92 1459.61 2079.82 1407.79C1954.72 1355.96 1817.07 1342.4 1684.27 1368.81C1551.46 1395.23 1429.47 1460.44 1333.73 1556.19C1237.98 1651.94 1172.78 1773.93 1146.36 1906.74C1119.95 2039.55 1133.51 2177.22 1185.33 2302.32C1237.16 2427.42 1324.91 2534.34 1437.5 2609.57C1550.1 2684.79 1682.46 2724.94 1817.87 2724.92C1907.76 2724.92 1996.78 2707.22 2079.83 2672.81C2162.88 2638.41 2238.35 2587.99 2301.91 2524.42C2365.48 2460.85 2415.9 2385.38 2450.3 2302.33C2484.7 2219.27 2502.41 2130.25 2502.41 2040.35Z" fill="white"/>
<path fill-rule="evenodd" clip-rule="evenodd" d="M2367.71 2036.76C2367.71 2145.54 2335.45 2251.87 2275.02 2342.32C2214.58 2432.76 2128.69 2503.26 2028.19 2544.88C1927.7 2586.51 1817.12 2597.4 1710.43 2576.17C1603.75 2554.94 1505.76 2502.56 1428.85 2425.63C1351.94 2348.71 1299.56 2250.71 1278.35 2144.02C1257.14 2037.33 1268.04 1926.74 1309.67 1826.24C1351.3 1725.75 1421.8 1639.86 1512.25 1579.43C1602.7 1519.01 1709.03 1486.76 1817.81 1486.77C1963.66 1486.79 2103.52 1544.74 2206.65 1647.88C2309.77 1751.02 2367.71 1890.9 2367.71 2036.76Z" fill="#2E688E"/>
<path fill-rule="evenodd" clip-rule="evenodd" d="M1836.53 1744.42C1838.78 1751.67 1839.54 1759.3 1838.78 1766.86C1879.94 1772.04 1930.74 1767.65 1975.62 1769.11V1798.32C1934.21 1809.24 1877.44 1804.79 1838.78 1818.51C1846.59 1974.62 1840.37 2147.8 1854.46 2303.3C1940.92 2300.62 2013 2264.52 2056.47 2211.28C2052.51 2205.49 2041.72 2206.65 2034.04 2204.51C2058.43 2179.02 2085.38 2155.73 2099.1 2119.14C2115.2 2156.95 2103.61 2221.28 2087.88 2249.27C2080.2 2245.01 2079.95 2233.3 2076.66 2224.88C2051.57 2256.74 2021.21 2284.07 1986.9 2305.68C1932.02 2339.1 1899.03 2321.41 1847.38 2402.89C1836.47 2419.78 1839.45 2476.85 1820.8 2476.06C1807.69 2475.64 1803.48 2416.06 1796.4 2401.97C1772.01 2354.83 1716.52 2341.42 1663.96 2309.95C1627.91 2287.9 1596.63 2258.88 1571.95 2224.58C1566.76 2231.35 1565.3 2241.9 1560.73 2248.97C1539.93 2223.36 1534.63 2160.91 1544.99 2118.84C1562.35 2150.89 1585.03 2179.76 1612.07 2204.21C1604.51 2205.32 1597.02 2206.83 1589.63 2208.72C1629.51 2263.91 1700.67 2299.64 1784.76 2303C1799.7 2274.34 1791.83 2226.96 1793.72 2184.03C1798.9 2066.58 1800.12 1941.26 1802.75 1818.14C1764.45 1805.58 1712.56 1806.55 1668.05 1800.15V1768.75C1712.26 1767.28 1762.26 1771.67 1802.75 1766.49C1817.5 1741.37 1786.22 1736 1778.05 1726.12C1772.06 1717.78 1768.13 1708.14 1766.57 1697.98C1765.02 1687.83 1765.88 1677.46 1769.09 1667.7C1790.73 1606.72 1895.31 1639.47 1874.52 1708.13C1869.52 1724.96 1855.19 1733.26 1836.41 1744.05L1836.53 1744.42ZM1818.48 1712.64C1851.41 1715.39 1852.08 1653.61 1811.71 1669.96C1786.53 1680.2 1802.5 1711.24 1818.48 1712.64Z" fill="white"/>
<path fill-rule="evenodd" clip-rule="evenodd" d="M1811.77 1670.38C1852.2 1653.98 1851.53 1715.75 1818.54 1713.07C1802.63 1711.73 1786.65 1680.69 1811.77 1670.38Z" fill="#2E688E"/>
<path d="M1845.86 1735.27H1821.28V2315.5H1845.86V1735.27Z" fill="white"/>
<path d="M1823.24 1736.98H1798.66V2315.5H1823.24V1736.98Z" fill="white"/>
<path d="M1817.81 2683.82C1690.55 2683.81 1566.15 2646.06 1460.35 2575.35C1354.54 2504.64 1272.08 2404.14 1223.39 2286.56C1174.7 2168.98 1161.97 2039.6 1186.8 1914.78C1211.63 1789.97 1272.92 1675.32 1362.91 1585.33C1452.9 1495.35 1567.55 1434.07 1692.36 1409.24C1817.17 1384.42 1946.55 1397.17 2064.11 1445.87C2181.68 1494.58 2282.17 1577.05 2352.87 1682.87C2423.57 1788.68 2461.31 1913.09 2461.31 2040.35C2461.11 2210.96 2393.25 2374.53 2272.61 2495.16C2151.97 2615.8 1988.41 2683.64 1817.81 2683.82ZM1817.81 1446.46C1700.35 1446.46 1585.53 1481.29 1487.87 1546.55C1390.21 1611.81 1314.1 1704.56 1269.15 1813.08C1224.2 1921.6 1212.44 2041.01 1235.35 2156.22C1258.27 2271.42 1314.83 2377.24 1397.88 2460.3C1480.94 2543.36 1586.75 2599.92 1701.95 2622.83C1817.15 2645.75 1936.55 2633.99 2045.07 2589.04C2153.58 2544.09 2246.33 2467.97 2311.59 2370.3C2376.84 2272.64 2411.67 2157.81 2411.67 2040.35C2411.51 1882.89 2348.89 1731.93 2237.55 1620.59C2126.22 1509.25 1975.26 1446.62 1817.81 1446.46Z" fill="#2E688E"/>
<path d="M3434.75 1187.17C3696.9 1187.17 3909.4 974.654 3909.4 712.499C3909.4 450.344 3696.9 237.825 3434.75 237.825C3172.61 237.825 2960.1 450.344 2960.1 712.499C2960.1 974.654 3172.61 1187.17 3434.75 1187.17Z" fill="#89C4C8"/>
<path d="M3806.91 712.255C3806.91 508.701 3637.75 339.114 3436.28 340.273C3234.81 341.431 3067.49 508.152 3067.67 707.742C3067.67 913.918 3232.31 1080.27 3436.28 1080.76C3638.3 1081.37 3807.03 913.552 3806.91 712.255Z" fill="white"/>
<path d="M3220.05 642.005H3457.38V518.58L3694.71 708.779L3457.38 906.418V782.932H3220.05V642.005Z" fill="#89C4C8"/>
</svg>
