<svg width="35" height="35" viewBox="0 0 35 35" fill="none" xmlns="http://www.w3.org/2000/svg">
<path d="M35 17.5C35 7.83501 27.165 0 17.5 0C7.83501 0 0 7.83501 0 17.5C0 26.2346 6.39946 33.4746 14.7656 34.7874V22.5586H10.3223V17.5H14.7656V13.6445C14.7656 9.2586 17.3783 6.83594 21.3756 6.83594C23.2897 6.83594 25.293 7.17774 25.293 7.17774V11.4844H23.0863C20.9125 11.4844 20.2344 12.8334 20.2344 14.2188V17.5H25.0879L24.312 22.5586H20.2344V34.7874C28.6005 33.4746 35 26.2346 35 17.5Z" fill="#1877F2"/>
<path d="M24.3101 22.5586L25.0859 17.5H20.2324V14.2188C20.2324 12.8348 20.9105 11.4844 23.0844 11.4844H25.291V7.17773C25.291 7.17773 23.2884 6.83594 21.3737 6.83594C17.3764 6.83594 14.7637 9.25859 14.7637 13.6445V17.5H10.3203V22.5586H14.7637V34.7874C16.5756 35.0709 18.4205 35.0709 20.2324 34.7874V22.5586H24.3101Z" fill="white"/>
</svg>
