<svg width="35" height="29" viewBox="0 0 35 29" fill="none" xmlns="http://www.w3.org/2000/svg">
<path d="M11.0068 28.7206C24.2144 28.7206 31.4384 17.7782 31.4384 8.28897C31.4384 7.97817 31.4384 7.66877 31.4174 7.36077C32.8228 6.34425 34.0359 5.0856 35 3.64377C33.6895 4.22477 32.2992 4.60562 30.8756 4.77357C32.3747 3.87624 33.4967 2.46471 34.0326 0.80177C32.6231 1.63828 31.0809 2.22777 29.4728 2.54477C28.3901 1.39353 26.9582 0.631206 25.3986 0.375769C23.839 0.120331 22.2387 0.386021 20.8454 1.13172C19.452 1.87743 18.3432 3.06157 17.6907 4.5009C17.0381 5.94024 16.8781 7.55453 17.2354 9.09397C14.3805 8.95076 11.5876 8.20881 9.03796 6.91628C6.48835 5.62375 4.23903 3.80953 2.436 1.59137C1.51773 3.1722 1.23648 5.04358 1.64952 6.82449C2.06256 8.6054 3.13883 10.1619 4.6592 11.1772C3.51638 11.1437 2.39844 10.8354 1.4 10.2784V10.3694C1.40045 12.0273 1.97437 13.634 3.0244 14.917C4.07442 16.2 5.53592 17.0803 7.161 17.4086C6.10383 17.6969 4.99461 17.7391 3.9186 17.5318C4.37765 18.9585 5.27104 20.2061 6.47389 21.1002C7.67674 21.9943 9.12891 22.4902 10.6274 22.5186C9.13856 23.6889 7.43358 24.5541 5.61003 25.0648C3.78647 25.5755 1.8801 25.7217 0 25.495C3.28392 27.6023 7.10489 28.7201 11.0068 28.715" fill="#1DA1F2"/>
</svg>
