<svg width="35" height="35" viewBox="0 0 35 35" fill="none" xmlns="http://www.w3.org/2000/svg">
<path d="M27.7096 5.83337H7.29297C6.13265 5.83337 5.01985 6.29431 4.19938 7.11478C3.37891 7.93525 2.91797 9.04805 2.91797 10.2084V24.7917C2.91797 25.952 3.37891 27.0648 4.19938 27.8853C5.01985 28.7058 6.13265 29.1667 7.29297 29.1667H27.7096C28.87 29.1667 29.9828 28.7058 30.8032 27.8853C31.6237 27.0648 32.0846 25.952 32.0846 24.7917V10.2084C32.0846 9.04805 31.6237 7.93525 30.8032 7.11478C29.9828 6.29431 28.87 5.83337 27.7096 5.83337ZM27.1117 8.75004L18.5367 17.325C18.4011 17.4617 18.2399 17.5702 18.0621 17.6443C17.8844 17.7183 17.6938 17.7564 17.5013 17.7564C17.3088 17.7564 17.1182 17.7183 16.9405 17.6443C16.7628 17.5702 16.6015 17.4617 16.4659 17.325L7.89089 8.75004H27.1117ZM29.168 24.7917C29.168 25.1785 29.0143 25.5494 28.7408 25.8229C28.4673 26.0964 28.0964 26.25 27.7096 26.25H7.29297C6.9062 26.25 6.53526 26.0964 6.26177 25.8229C5.98828 25.5494 5.83464 25.1785 5.83464 24.7917V10.8063L14.4096 19.3813C15.23 20.2006 16.3419 20.6608 17.5013 20.6608C18.6607 20.6608 19.7727 20.2006 20.593 19.3813L29.168 10.8063V24.7917Z" fill="black"/>
</svg>
