<svg width="19" height="19" viewBox="0 0 19 19" fill="none" xmlns="http://www.w3.org/2000/svg">
<path d="M13.0818 10.8538L18.8648 16.6395L16.8982 18.589C16.205 17.8727 15.4692 17.1013 14.7256 16.3469C13.6401 15.2449 12.5415 14.1533 11.4626 13.0441C11.25 12.8265 11.0998 12.8127 10.8363 12.967C6.4823 15.5143 1.11518 12.7355 0.616552 7.68489C0.259839 4.05807 2.96669 0.751943 6.57765 0.314433C10.6007 -0.173221 14.4527 3.04529 14.1464 7.64301C14.0916 8.4767 13.7229 9.29166 13.4713 10.1066C13.3913 10.3639 13.2198 10.5937 13.0818 10.8538ZM12.7607 7.11954C12.7607 4.14403 10.3031 1.66829 7.37546 1.68813C4.44778 1.70796 2.0171 4.14072 2.01984 7.05672C2.01984 10.0681 4.41217 12.4992 7.376 12.5058C10.3108 12.5129 12.7623 10.0603 12.7607 7.11954Z" fill="#2E688E"/>
</svg>
