<svg id="svg" version="1.1" xmlns="http://www.w3.org/2000/svg" xmlns:xlink="http://www.w3.org/1999/xlink" width="400" height="400.3809523809524" viewBox="0, 0, 400,400.3809523809524"><g id="svgg"><path id="path0" d="M188.381 0.226 C 187.543 0.307,184.629 0.556,181.905 0.781 C 93.828 8.037,19.377 75.607,3.246 162.926 C -22.236 300.864,96.638 421.168,234.857 397.324 C 335.511 379.960,407.459 287.321,399.637 185.156 C 392.208 88.117,317.428 11.265,220.381 0.934 C 215.024 0.364,192.197 -0.141,188.381 0.226 M214.326 12.578 C 320.868 20.985,399.127 115.945,386.838 221.905 C 374.492 328.355,274.956 403.236,169.143 385.678 C 64.009 368.232,-5.734 266.439,15.824 161.905 C 34.831 69.739,120.642 5.186,214.326 12.578 M188.952 27.087 C 57.106 35.709,-17.471 184.294,54.700 294.571 C 128.332 407.081,296.516 396.915,355.615 276.381 C 413.966 157.373,321.088 18.447,188.952 27.087 M215.272 39.043 C 338.984 50.990,403.001 193.144,329.960 293.714 C 258.727 391.796,106.164 377.647,54.760 268.190 C 1.675 155.154,91.389 27.079,215.272 39.043 M195.516 82.470 C 186.911 84.895,182.680 94.061,185.878 103.351 C 187.394 107.756,188.078 108.566,192.667 111.393 L 194.286 112.391 194.286 116.350 L 194.286 120.309 192.286 120.613 C 191.186 120.781,182.614 120.880,173.238 120.834 L 156.190 120.751 156.190 125.340 C 156.190 128.670,156.321 129.974,156.667 130.093 C 157.165 130.264,164.595 131.000,176.190 132.026 C 182.923 132.621,189.995 133.667,192.897 134.496 L 194.365 134.915 194.162 178.029 C 194.049 202.222,193.769 224.737,193.525 229.333 C 193.286 233.838,193.048 244.552,192.996 253.143 C 192.882 272.032,192.130 276.952,189.356 276.952 C 170.824 276.952,147.795 266.630,136.354 253.194 C 133.137 249.417,133.134 249.361,136.095 248.778 C 137.405 248.520,138.709 248.238,138.994 248.151 C 139.319 248.051,138.211 246.632,136.014 244.334 C 129.618 237.644,125.160 231.888,121.537 225.642 L 120.116 223.193 119.582 226.168 C 117.699 236.658,119.653 253.224,123.487 259.268 C 124.828 261.383,124.993 261.292,126.295 257.722 C 127.767 253.688,127.874 253.665,130.298 256.875 C 138.997 268.391,149.388 276.365,167.982 285.794 C 182.629 293.222,187.941 297.052,191.989 303.104 C 194.140 306.321,194.215 306.543,196.010 315.048 C 198.449 326.609,199.870 329.032,202.754 326.557 C 203.821 325.641,204.870 322.287,205.905 316.484 C 207.331 308.483,207.992 306.628,210.812 302.714 C 218.556 291.965,223.437 288.290,236.211 283.591 C 250.457 278.350,261.903 270.110,272.879 257.192 L 275.589 254.004 276.392 256.621 C 277.716 260.931,278.671 261.907,279.604 259.905 C 283.992 250.490,285.640 234.955,283.180 226.188 C 282.394 223.386,282.172 223.275,281.304 225.248 C 278.891 230.733,275.463 235.369,268.675 242.322 C 262.852 248.287,262.892 248.200,265.883 248.539 C 267.193 248.687,268.516 249.094,269.023 249.505 L 269.900 250.214 265.136 254.917 C 254.362 265.553,241.214 272.274,225.100 275.382 C 220.947 276.183,211.174 277.206,210.843 276.875 C 210.610 276.641,209.705 264.958,209.167 255.238 C 208.216 238.052,207.966 220.536,208.076 178.683 L 208.190 134.700 209.820 134.228 C 212.386 133.486,218.862 132.652,228.571 131.815 C 237.322 131.061,240.034 130.724,244.095 129.884 L 246.095 129.470 246.095 125.113 L 246.095 120.757 228.667 120.833 C 219.081 120.875,210.510 120.775,209.619 120.612 L 208.000 120.314 208.021 116.252 L 208.043 112.190 210.768 110.286 C 223.520 101.373,216.790 83.098,200.381 82.082 C 198.505 81.965,196.835 82.099,195.516 82.470 M204.942 92.183 C 208.265 94.549,207.870 100.984,204.252 103.443 C 198.807 107.142,191.637 99.470,195.470 94.045 C 197.168 91.642,202.665 90.561,204.942 92.183 " stroke="none" fill="#fafbfb" fill-rule="evenodd"></path><path id="path1" d="M187.810 12.623 C 78.712 19.464,-2.106 119.605,14.147 227.810 C 29.180 327.891,121.002 398.367,221.333 386.830 C 306.770 377.006,374.949 310.080,386.244 224.952 C 401.813 107.609,306.110 5.206,187.810 12.623 M213.183 27.053 C 346.538 37.531,418.778 189.324,342.579 298.942 C 267.091 407.535,102.180 395.066,44.195 276.381 C -14.508 156.226,80.128 16.598,213.183 27.053 M188.571 38.884 C 101.325 45.404,35.702 119.234,39.645 206.435 C 44.117 305.352,136.304 376.616,233.333 356.164 C 327.704 336.273,383.201 237.708,351.614 146.095 C 328.183 78.140,260.329 33.521,188.571 38.884 M204.598 82.513 C 218.445 86.580,222.198 102.520,211.137 110.286 L 208.424 112.190 208.402 116.229 L 208.381 120.268 211.524 120.513 C 213.252 120.647,221.824 120.758,230.571 120.760 L 246.476 120.762 246.476 125.128 L 246.476 129.494 244.991 129.894 C 242.350 130.605,236.204 131.381,226.857 132.182 C 217.920 132.949,209.264 134.206,208.640 134.827 C 208.469 134.998,208.402 159.804,208.492 189.950 C 208.654 244.124,208.731 247.796,210.097 266.767 C 210.410 271.117,210.667 275.102,210.667 275.624 C 210.667 276.789,213.245 276.901,219.810 276.019 C 238.365 273.527,253.990 266.069,265.686 254.119 C 270.046 249.665,270.056 249.401,265.891 248.730 C 264.547 248.514,263.379 248.268,263.295 248.184 C 263.211 248.100,265.435 245.609,268.238 242.649 C 274.507 236.027,277.944 231.513,280.366 226.721 L 282.222 223.048 282.818 224.447 C 284.404 228.171,284.996 236.682,284.152 243.619 C 283.347 250.227,279.854 261.602,278.742 261.232 C 277.916 260.956,276.852 259.076,276.224 256.779 L 275.579 254.423 271.933 258.545 C 260.548 271.416,250.752 278.334,236.190 283.786 C 223.291 288.615,217.878 292.734,210.760 303.135 C 207.981 307.195,207.569 308.361,206.269 315.843 C 204.519 325.912,202.321 329.560,199.628 326.866 C 198.182 325.420,197.895 324.440,194.638 309.820 C 192.613 300.736,186.683 295.484,167.429 285.723 C 149.322 276.545,139.336 268.898,130.486 257.436 C 127.886 254.069,127.937 254.060,126.304 258.141 C 124.920 261.602,124.736 261.655,123.170 259.047 C 119.401 252.770,117.490 237.500,119.190 227.238 C 119.938 222.723,119.998 222.709,122.284 226.531 C 125.434 231.797,130.197 237.913,135.213 243.134 C 140.635 248.777,140.409 248.152,137.230 248.720 C 133.372 249.409,133.377 249.393,136.113 252.599 C 147.867 266.372,169.844 276.510,188.064 276.564 L 190.413 276.571 191.001 274.952 C 192.414 271.059,192.477 270.220,192.793 251.238 C 192.968 240.762,193.299 228.162,193.529 223.238 C 193.760 218.314,194.044 196.503,194.162 174.770 L 194.376 135.254 193.355 134.865 C 190.515 133.785,182.557 132.754,165.333 131.232 C 161.667 130.907,158.110 130.543,157.429 130.422 L 156.190 130.201 156.190 125.481 L 156.190 120.762 171.524 120.760 C 179.957 120.759,188.529 120.647,190.571 120.512 L 194.286 120.266 194.286 116.403 L 194.286 112.539 191.893 111.140 C 186.688 108.095,184.480 103.366,184.832 96.012 C 185.322 85.770,194.454 79.533,204.598 82.513 M199.617 91.764 C 195.098 93.234,193.545 96.490,195.468 100.462 C 198.261 106.233,205.419 105.273,206.839 98.936 C 207.953 93.967,204.225 90.266,199.617 91.764 " stroke="none" fill="#146c94" fill-rule="evenodd"></path><path id="path2" d="M191.714 26.929 C 192.081 27.025,192.681 27.025,193.048 26.929 C 193.414 26.833,193.114 26.755,192.381 26.755 C 191.648 26.755,191.348 26.833,191.714 26.929 M206.766 26.936 C 207.240 27.027,207.926 27.024,208.290 26.928 C 208.654 26.833,208.267 26.759,207.429 26.763 C 206.590 26.767,206.292 26.845,206.766 26.936 M77.134 77.810 L 74.095 80.952 77.238 77.914 C 80.157 75.091,80.555 74.667,80.277 74.667 C 80.219 74.667,78.805 76.081,77.134 77.810 M319.619 74.771 C 319.619 74.829,320.948 76.158,322.571 77.724 L 325.524 80.571 322.676 77.619 C 320.031 74.877,319.619 74.493,319.619 74.771 M315.429 87.357 C 315.429 87.423,315.986 87.980,316.667 88.595 L 317.905 89.714 316.786 88.476 C 315.743 87.322,315.429 87.063,315.429 87.357 M208.144 116.190 C 208.144 118.600,208.206 119.586,208.282 118.381 C 208.357 117.176,208.357 115.205,208.282 114.000 C 208.206 112.795,208.144 113.781,208.144 116.190 M177.429 121.044 C 178.738 121.118,180.881 121.118,182.190 121.044 C 183.500 120.970,182.429 120.909,179.810 120.909 C 177.190 120.909,176.119 120.970,177.429 121.044 M220.110 121.044 C 221.428 121.119,223.485 121.118,224.682 121.043 C 225.878 120.968,224.800 120.907,222.286 120.907 C 219.771 120.908,218.792 120.970,220.110 121.044 M208.185 182.476 C 208.185 208.771,208.230 219.529,208.286 206.381 C 208.341 193.233,208.341 171.719,208.286 158.571 C 208.230 145.424,208.185 156.181,208.185 182.476 M39.326 192.000 C 39.326 192.733,39.405 193.033,39.501 192.667 C 39.597 192.300,39.597 191.700,39.501 191.333 C 39.405 190.967,39.326 191.267,39.326 192.000 M360.477 192.571 C 360.481 193.410,360.559 193.708,360.650 193.234 C 360.742 192.760,360.738 192.074,360.643 191.710 C 360.547 191.346,360.473 191.733,360.477 192.571 M11.965 200.000 C 11.965 203.457,12.022 204.871,12.093 203.143 C 12.164 201.414,12.164 198.586,12.093 196.857 C 12.022 195.129,11.965 196.543,11.965 200.000 M387.964 200.190 C 387.964 203.543,388.022 204.863,388.093 203.125 C 388.164 201.386,388.164 198.643,388.092 197.030 C 388.021 195.416,387.963 196.838,387.964 200.190 M360.477 205.524 C 360.481 206.362,360.559 206.660,360.650 206.186 C 360.742 205.712,360.738 205.026,360.643 204.662 C 360.547 204.298,360.473 204.686,360.477 205.524 M39.326 206.095 C 39.326 206.829,39.405 207.129,39.501 206.762 C 39.597 206.395,39.597 205.795,39.501 205.429 C 39.405 205.062,39.326 205.362,39.326 206.095 M194.019 208.381 C 194.019 209.533,194.090 210.005,194.178 209.429 C 194.265 208.852,194.265 207.910,194.178 207.333 C 194.090 206.757,194.019 207.229,194.019 208.381 M193.628 221.714 C 193.628 222.657,193.702 223.043,193.793 222.571 C 193.883 222.100,193.883 221.329,193.793 220.857 C 193.702 220.386,193.628 220.771,193.628 221.714 M193.239 232.571 C 193.243 233.410,193.321 233.708,193.412 233.234 C 193.503 232.760,193.500 232.074,193.405 231.710 C 193.309 231.346,193.235 231.733,193.239 232.571 M118.607 236.762 C 118.608 238.438,118.675 239.076,118.756 238.180 C 118.836 237.284,118.835 235.913,118.753 235.133 C 118.671 234.353,118.605 235.086,118.607 236.762 M208.477 240.952 C 208.481 241.790,208.559 242.088,208.650 241.615 C 208.742 241.141,208.738 240.455,208.643 240.091 C 208.547 239.727,208.473 240.114,208.477 240.952 M192.850 242.286 C 192.850 243.019,192.929 243.319,193.025 242.952 C 193.120 242.586,193.120 241.986,193.025 241.619 C 192.929 241.252,192.850 241.552,192.850 242.286 M133.714 242.024 C 133.714 242.090,134.271 242.647,134.952 243.262 L 136.190 244.381 135.072 243.143 C 134.029 241.989,133.714 241.730,133.714 242.024 M138.575 246.885 C 139.048 247.425,139.320 247.982,139.178 248.123 C 139.036 248.265,139.121 248.381,139.365 248.381 C 140.096 248.381,139.874 247.808,138.762 246.828 L 137.714 245.905 138.575 246.885 M192.884 253.333 C 192.884 254.695,192.953 255.252,193.037 254.571 C 193.122 253.890,193.122 252.776,193.037 252.095 C 192.953 251.414,192.884 251.971,192.884 253.333 M137.905 265.714 C 139.043 266.867,140.060 267.810,140.164 267.810 C 140.269 267.810,139.424 266.867,138.286 265.714 C 137.148 264.562,136.131 263.619,136.026 263.619 C 135.921 263.619,136.767 264.562,137.905 265.714 M217.690 294.190 L 216.571 295.429 217.810 294.310 C 218.490 293.694,219.048 293.137,219.048 293.072 C 219.048 292.777,218.733 293.036,217.690 294.190 M198.571 359.897 C 199.357 359.979,200.643 359.979,201.429 359.897 C 202.214 359.814,201.571 359.747,200.000 359.747 C 198.429 359.747,197.786 359.814,198.571 359.897 M194.959 373.609 C 195.644 373.694,196.672 373.692,197.245 373.606 C 197.817 373.519,197.257 373.449,196.000 373.451 C 194.743 373.454,194.274 373.525,194.959 373.609 M202.959 373.609 C 203.644 373.694,204.672 373.692,205.245 373.606 C 205.817 373.519,205.257 373.449,204.000 373.451 C 202.743 373.454,202.274 373.525,202.959 373.609 M190.952 388.072 C 191.319 388.168,191.919 388.168,192.286 388.072 C 192.652 387.976,192.352 387.898,191.619 387.898 C 190.886 387.898,190.586 387.976,190.952 388.072 M207.528 388.079 C 208.002 388.170,208.688 388.167,209.052 388.071 C 209.416 387.976,209.029 387.901,208.190 387.906 C 207.352 387.910,207.054 387.988,207.528 388.079 " stroke="none" fill="#8cb4cc" fill-rule="evenodd"></path><path id="path3" d="M86.275 85.429 L 83.619 88.190 86.381 85.534 C 88.946 83.067,89.317 82.667,89.037 82.667 C 88.979 82.667,87.737 83.910,86.275 85.429 M313.333 85.333 C 314.365 86.381,315.295 87.238,315.400 87.238 C 315.505 87.238,314.746 86.381,313.714 85.333 C 312.682 84.286,311.752 83.429,311.648 83.429 C 311.543 83.429,312.301 84.286,313.333 85.333 M139.238 256.381 C 140.056 257.219,140.812 257.905,140.917 257.905 C 141.021 257.905,140.437 257.219,139.619 256.381 C 138.801 255.543,138.045 254.857,137.941 254.857 C 137.836 254.857,138.420 255.543,139.238 256.381 M266.466 264.095 L 263.810 266.857 266.571 264.201 C 269.137 261.733,269.507 261.333,269.228 261.333 C 269.170 261.333,267.927 262.576,266.466 264.095 M83.048 309.453 C 83.048 309.518,83.605 310.075,84.286 310.691 L 85.524 311.810 84.405 310.571 C 83.362 309.417,83.048 309.158,83.048 309.453 M313.524 312.571 C 311.963 314.143,310.771 315.429,310.876 315.429 C 310.981 315.429,312.344 314.143,313.905 312.571 C 315.466 311.000,316.657 309.714,316.552 309.714 C 316.448 309.714,315.085 311.000,313.524 312.571 M77.143 322.667 C 78.598 324.133,79.875 325.333,79.980 325.333 C 80.084 325.333,78.979 324.133,77.524 322.667 C 76.068 321.200,74.792 320.000,74.687 320.000 C 74.582 320.000,75.687 321.200,77.143 322.667 M322.464 322.762 L 320.190 325.143 322.571 322.869 C 324.783 320.757,325.127 320.381,324.845 320.381 C 324.786 320.381,323.715 321.452,322.464 322.762 M64.381 330.390 C 64.381 330.448,65.710 331.777,67.333 333.343 L 70.286 336.190 67.438 333.238 C 64.793 330.496,64.381 330.112,64.381 330.390 M332.752 333.048 L 330.095 335.810 332.857 333.153 C 335.422 330.686,335.793 330.286,335.514 330.286 C 335.456 330.286,334.213 331.529,332.752 333.048 " stroke="none" fill="#659db8" fill-rule="evenodd"></path><path id="path4" d="M190.952 12.453 C 191.319 12.549,191.919 12.549,192.286 12.453 C 192.652 12.357,192.352 12.279,191.619 12.279 C 190.886 12.279,190.586 12.357,190.952 12.453 M207.714 12.453 C 208.081 12.549,208.681 12.549,209.048 12.453 C 209.414 12.357,209.114 12.279,208.381 12.279 C 207.648 12.279,207.348 12.357,207.714 12.453 M67.039 67.333 L 63.810 70.667 67.143 67.437 C 70.239 64.437,70.650 64.000,70.373 64.000 C 70.316 64.000,68.816 65.500,67.039 67.333 M332.762 67.429 C 334.428 69.105,335.877 70.476,335.982 70.476 C 336.087 70.476,334.809 69.105,333.143 67.429 C 331.476 65.752,330.027 64.381,329.923 64.381 C 329.818 64.381,331.096 65.752,332.762 67.429 M246.241 125.143 C 246.241 127.657,246.303 128.636,246.378 127.318 C 246.452 126.001,246.452 123.944,246.376 122.747 C 246.301 121.550,246.240 122.629,246.241 125.143 M39.352 195.048 C 39.352 196.200,39.424 196.671,39.511 196.095 C 39.598 195.519,39.598 194.576,39.511 194.000 C 39.424 193.424,39.352 193.895,39.352 195.048 M360.530 199.238 C 360.530 202.067,360.590 203.224,360.663 201.810 C 360.737 200.395,360.737 198.081,360.663 196.667 C 360.590 195.252,360.530 196.410,360.530 199.238 M26.435 200.000 C 26.435 202.829,26.495 203.986,26.568 202.571 C 26.642 201.157,26.642 198.843,26.568 197.429 C 26.495 196.014,26.435 197.171,26.435 200.000 M373.481 200.190 C 373.482 202.914,373.543 203.979,373.616 202.556 C 373.690 201.133,373.689 198.904,373.615 197.603 C 373.541 196.302,373.481 197.467,373.481 200.190 M39.352 203.048 C 39.352 204.200,39.424 204.671,39.511 204.095 C 39.598 203.519,39.598 202.576,39.511 202.000 C 39.424 201.424,39.352 201.895,39.352 203.048 M194.019 204.190 C 194.019 205.343,194.090 205.814,194.178 205.238 C 194.265 204.662,194.265 203.719,194.178 203.143 C 194.090 202.567,194.019 203.038,194.019 204.190 M193.628 218.286 C 193.628 219.229,193.702 219.614,193.793 219.143 C 193.883 218.671,193.883 217.900,193.793 217.429 C 193.702 216.957,193.628 217.343,193.628 218.286 M193.239 229.905 C 193.243 230.743,193.321 231.041,193.412 230.567 C 193.503 230.093,193.500 229.407,193.405 229.043 C 193.309 228.679,193.235 229.067,193.239 229.905 M208.477 237.905 C 208.481 238.743,208.559 239.041,208.650 238.567 C 208.742 238.093,208.738 237.407,208.643 237.043 C 208.547 236.679,208.473 237.067,208.477 237.905 M265.143 254.667 C 264.218 255.610,263.546 256.381,263.651 256.381 C 263.756 256.381,264.598 255.610,265.524 254.667 C 266.449 253.724,267.121 252.952,267.016 252.952 C 266.911 252.952,266.068 253.724,265.143 254.667 M192.904 259.619 C 192.905 261.924,192.968 262.818,193.044 261.605 C 193.120 260.393,193.119 258.507,193.042 257.415 C 192.966 256.322,192.904 257.314,192.904 259.619 M85.333 311.738 C 85.333 311.804,85.890 312.361,86.571 312.976 L 87.810 314.095 86.691 312.857 C 85.648 311.703,85.333 311.444,85.333 311.738 M192.095 373.596 C 192.462 373.692,193.062 373.692,193.429 373.596 C 193.795 373.500,193.495 373.422,192.762 373.422 C 192.029 373.422,191.729 373.500,192.095 373.596 M206.571 373.596 C 206.938 373.692,207.538 373.692,207.905 373.596 C 208.271 373.500,207.971 373.422,207.238 373.422 C 206.505 373.422,206.205 373.500,206.571 373.596 M194.005 388.083 C 194.584 388.170,195.441 388.168,195.910 388.078 C 196.379 387.987,195.905 387.916,194.857 387.918 C 193.810 387.921,193.426 387.995,194.005 388.083 M204.291 388.083 C 204.870 388.170,205.727 388.168,206.196 388.078 C 206.664 387.987,206.190 387.916,205.143 387.918 C 204.095 387.921,203.712 387.995,204.291 388.083 " stroke="none" fill="#4c8cac" fill-rule="evenodd"></path></g></svg>