<svg width="20" height="20" viewBox="0 0 20 20" fill="none" xmlns="http://www.w3.org/2000/svg">
<path d="M10.1216 17.1247C9.83824 16.7432 9.56779 16.388 9.30791 16.027C8.15996 14.4306 7.0629 12.8024 6.16192 11.0533C5.74235 10.239 5.33687 9.41152 5.19479 8.49952C5.00301 7.26878 5.33922 6.14584 6.05155 5.13807C6.61999 4.33214 7.41942 3.7137 8.34645 3.36274C9.27348 3.01179 10.2855 2.94445 11.2515 3.16943C13.2433 3.63086 14.7298 5.21988 15.0617 7.21954C15.2128 8.12921 15.0097 8.97684 14.6684 9.80897C14.1251 11.1316 13.4187 12.3682 12.6273 13.5562C11.8562 14.7133 11.039 15.8397 10.2398 16.9793C10.2151 17.0185 10.1799 17.0546 10.1216 17.1247ZM6.75566 7.84615C6.749 9.68488 8.24881 11.1902 10.0985 11.2014C11.9647 11.213 13.493 9.71513 13.4966 7.87135C13.4909 6.99156 13.1351 6.1495 12.5063 5.52818C11.8776 4.90685 11.0268 4.55645 10.1387 4.55313C9.25065 4.54981 8.39715 4.89383 7.76369 5.51044C7.13022 6.12705 6.76797 6.96642 6.75566 7.84615Z" fill="#2E688E"/>
<path d="M8.13867 7.2698H10.2459V6.03906L12.3535 7.85686L10.2459 9.74018V8.50945H8.13867V7.2698Z" fill="#2E688E"/>
</svg>
