<svg width="48" height="48" viewBox="0 0 48 48" fill="none" xmlns="http://www.w3.org/2000/svg">
<path d="M0 24C0 10.7452 10.7452 0 24 0C37.2548 0 48 10.7452 48 24C48 37.2548 37.2548 48 24 48C10.7452 48 0 37.2548 0 24Z" fill="#3182CE"/>
<path d="M20.1523 20.2756C20.0766 19.6032 19.7641 19.0824 19.2148 18.7131C18.6656 18.339 17.9743 18.152 17.141 18.152C16.5444 18.152 16.0283 18.2467 15.5927 18.4361C15.1571 18.6207 14.8185 18.8764 14.5771 19.2031C14.3403 19.5251 14.2219 19.892 14.2219 20.304C14.2219 20.6496 14.3024 20.9479 14.4634 21.1989C14.6291 21.4498 14.8446 21.6605 15.1097 21.831C15.3796 21.9967 15.6684 22.1364 15.9762 22.25C16.284 22.3589 16.5799 22.4489 16.864 22.5199L18.2844 22.8892C18.7485 23.0028 19.2243 23.1567 19.712 23.3509C20.1997 23.545 20.6519 23.8007 21.0685 24.1179C21.4852 24.4351 21.8214 24.8281 22.0771 25.2969C22.3375 25.7656 22.4677 26.3267 22.4677 26.9801C22.4677 27.804 22.2546 28.5355 21.8285 29.1747C21.4071 29.8139 20.7939 30.3182 19.989 30.6875C19.1888 31.0568 18.2205 31.2415 17.0842 31.2415C15.9951 31.2415 15.0529 31.0687 14.2575 30.723C13.462 30.3774 12.8394 29.8873 12.3896 29.2528C11.9397 28.6136 11.6912 27.8561 11.6438 26.9801H13.8455C13.8881 27.5057 14.0586 27.9437 14.3569 28.294C14.6599 28.6397 15.0458 28.8977 15.5146 29.0682C15.988 29.2339 16.5065 29.3168 17.07 29.3168C17.6902 29.3168 18.2418 29.2197 18.7248 29.0256C19.2125 28.8267 19.596 28.5521 19.8754 28.2017C20.1547 27.8466 20.2944 27.4323 20.2944 26.9588C20.2944 26.5279 20.1713 26.1752 19.9251 25.9006C19.6836 25.6259 19.3545 25.3987 18.9379 25.2188C18.5259 25.0388 18.0595 24.8802 17.5387 24.7429L15.82 24.2741C14.6552 23.9569 13.7319 23.4905 13.0501 22.875C12.373 22.2595 12.0344 21.4451 12.0344 20.4318C12.0344 19.5937 12.2617 18.8622 12.7163 18.2372C13.1708 17.6122 13.7863 17.1269 14.5629 16.7812C15.3394 16.4309 16.2153 16.2557 17.1907 16.2557C18.1755 16.2557 19.0444 16.4285 19.7972 16.7741C20.5548 17.1198 21.1514 17.5956 21.587 18.2017C22.0226 18.803 22.2499 19.4943 22.2688 20.2756H20.1523ZM26.2017 31H23.8722L29.1065 16.4545H31.642L36.8764 31H34.5469L30.4347 19.0966H30.321L26.2017 31ZM26.5923 25.304H34.1491V27.1506H26.5923V25.304Z" fill="white"/>
</svg>
